<svg width="375" height="812" viewBox="0 0 375 812" fill="none" xmlns="http://www.w3.org/2000/svg">
<g clip-path="url(#clip0_210_442)">
<rect width="375" height="812" fill="#110C24"/>
<path opacity="0.23" d="M-567.266 202.596C-567.266 202.596 -345.733 282.797 -200.303 379.988C-54.8722 477.178 39.0642 481.49 58.5199 489.997C77.9756 498.504 214.071 529.102 236.211 533.603C258.351 538.105 617.165 628.322 647.2 645.78C677.234 663.238 979.08 744.719 979.08 744.719L952.15 1136.58L-626.93 1059.44L-567.266 202.596Z" fill="#3C1E77"/>
<path d="M134.397 149.023C134.716 147.512 136.2 146.546 137.711 146.866C139.222 147.185 140.188 148.669 139.869 150.18C139.55 151.691 138.066 152.657 136.555 152.338C135.044 152.018 134.078 150.535 134.397 149.023Z" fill="#FBF7FF" fill-opacity="0.46"/>
<path d="M244.471 110.293C244.79 108.782 246.274 107.816 247.785 108.135C249.296 108.455 250.262 109.938 249.943 111.449C249.623 112.961 248.139 113.927 246.628 113.607C245.118 113.288 244.152 111.804 244.471 110.293Z" fill="#FBF7FF" fill-opacity="0.46"/>
<path d="M197.799 285.84C198.119 284.329 199.603 283.363 201.114 283.682C202.625 284.002 203.59 285.485 203.271 286.996C202.952 288.507 201.468 289.474 199.957 289.154C198.447 288.835 197.48 287.351 197.799 285.84Z" fill="#FBF7FF" fill-opacity="0.46"/>
<path d="M368.799 327.695C369.119 326.184 370.603 325.218 372.114 325.538C373.625 325.856 374.59 327.34 374.271 328.851C373.951 330.362 372.468 331.329 370.957 331.01C369.447 330.69 368.48 329.206 368.799 327.695Z" fill="#FBF7FF" fill-opacity="0.46"/>
<path d="M342.358 305.109C342.497 304.457 343.136 304.041 343.788 304.179C344.439 304.316 344.856 304.957 344.719 305.608C344.581 306.26 343.941 306.677 343.29 306.539C342.638 306.401 342.221 305.761 342.358 305.109Z" fill="#FBF7FF" fill-opacity="0.46"/>
<path d="M307.081 165.406C307.218 164.754 307.859 164.338 308.51 164.475C309.162 164.613 309.579 165.253 309.442 165.905C309.303 166.557 308.663 166.974 308.011 166.835C307.36 166.698 306.943 166.058 307.081 165.406Z" fill="#FBF7FF" fill-opacity="0.46"/>
<path d="M261.948 322.985C262.086 322.333 262.726 321.916 263.378 322.054C264.029 322.192 264.446 322.832 264.308 323.484C264.171 324.136 263.531 324.552 262.879 324.414C262.227 324.277 261.81 323.636 261.948 322.985Z" fill="#FBF7FF" fill-opacity="0.46"/>
<path d="M312.694 216.953C312.832 216.302 313.472 215.885 314.124 216.022C314.776 216.16 315.192 216.801 315.054 217.452C314.917 218.104 314.277 218.521 313.625 218.383C312.973 218.245 312.556 217.605 312.694 216.953Z" fill="#FBF7FF" fill-opacity="0.46"/>
<path d="M239.648 194.312C239.785 193.66 240.425 193.244 241.077 193.382C241.729 193.519 242.145 194.16 242.007 194.811C241.87 195.463 241.23 195.88 240.578 195.742C239.926 195.604 239.509 194.964 239.648 194.312Z" fill="#FBF7FF" fill-opacity="0.46"/>
<path d="M252.35 259.762C252.489 259.11 253.129 258.693 253.781 258.831C254.432 258.969 254.848 259.609 254.711 260.26C254.574 260.912 253.933 261.329 253.282 261.191C252.63 261.054 252.213 260.414 252.35 259.762Z" fill="#FBF7FF" fill-opacity="0.46"/>
<path d="M249.675 271.781C249.813 271.129 250.453 270.712 251.105 270.851C251.756 270.988 252.173 271.628 252.035 272.28C251.898 272.932 251.257 273.348 250.606 273.211C249.954 273.073 249.537 272.433 249.675 271.781Z" fill="#FBF7FF" fill-opacity="0.46"/>
<path d="M240.702 260.441C240.84 259.79 241.48 259.373 242.132 259.511C242.783 259.649 243.2 260.289 243.063 260.941C242.924 261.592 242.284 262.009 241.632 261.871C240.982 261.733 240.565 261.093 240.702 260.441Z" fill="#FBF7FF" fill-opacity="0.46"/>
<path d="M165.675 78.3591C165.812 77.7072 166.452 77.2911 167.104 77.4286C167.756 77.566 168.173 78.2068 168.034 78.8578C167.897 79.5098 167.257 79.9268 166.605 79.7893C165.953 79.651 165.537 79.0111 165.675 78.3591Z" fill="#FBF7FF" fill-opacity="0.46"/>
<path d="M166.479 92.0196C166.618 91.3676 167.258 90.9506 167.909 91.089C168.561 91.2265 168.977 91.8663 168.84 92.5183C168.702 93.1702 168.062 93.5872 167.411 93.4489C166.759 93.3114 166.342 92.6715 166.479 92.0196Z" fill="#FBF7FF" fill-opacity="0.46"/>
<path d="M167.171 105.551C167.308 104.9 167.948 104.483 168.6 104.62C169.252 104.758 169.669 105.398 169.53 106.05C169.393 106.701 168.753 107.118 168.101 106.981C167.449 106.842 167.033 106.202 167.171 105.551Z" fill="#FBF7FF" fill-opacity="0.46"/>
<path d="M38.0653 22.7227C38.2036 22.0707 38.8434 21.6538 39.4954 21.7921C40.1463 21.9296 40.5633 22.5695 40.4259 23.2214C40.2884 23.8734 39.6477 24.2894 38.9967 24.152C38.3448 24.0145 37.9278 23.3746 38.0653 22.7227Z" fill="#FBF7FF" fill-opacity="0.46"/>
<path d="M27.7296 173.379C27.8671 172.727 28.5069 172.311 29.1588 172.448C29.8107 172.586 30.2268 173.226 30.0893 173.877C29.9519 174.529 29.3121 174.946 28.6602 174.809C28.0082 174.67 27.5913 174.031 27.7296 173.379Z" fill="#FBF7FF" fill-opacity="0.46"/>
<path d="M78.8742 235.683C79.0116 235.031 79.6514 234.615 80.3034 234.753C80.9553 234.89 81.3722 235.53 81.2338 236.182C81.0964 236.834 80.4566 237.251 79.8047 237.113C79.1527 236.975 78.7358 236.335 78.8742 235.683Z" fill="#FBF7FF" fill-opacity="0.46"/>
<path d="M284.257 34.9421C284.395 34.2901 285.035 33.8731 285.687 34.0106C286.339 34.149 286.755 34.7888 286.617 35.4408C286.48 36.0927 285.839 36.5088 285.188 36.3713C284.536 36.2339 284.119 35.5931 284.257 34.9421Z" fill="#FBF7FF" fill-opacity="0.46"/>
<path d="M184.772 13.9138C184.911 13.2619 185.55 12.8458 186.202 12.9833C186.854 13.1207 187.27 13.7606 187.133 14.4125C186.995 15.0645 186.355 15.4815 185.704 15.3431C185.052 15.2057 184.635 14.5658 184.772 13.9138Z" fill="#FBF7FF" fill-opacity="0.46"/>
<path d="M129.3 65.7149C129.437 65.0629 130.077 64.646 130.729 64.7843C131.381 64.9218 131.798 65.5617 131.659 66.2136C131.522 66.8656 130.882 67.2825 130.23 67.1442C129.578 67.0067 129.162 66.3668 129.3 65.7149Z" fill="#FBF7FF" fill-opacity="0.46"/>
<path d="M86.2372 82.0193C86.3746 81.3674 87.0154 80.9513 87.6664 81.0887C88.3183 81.2262 88.7352 81.867 88.5978 82.518C88.4594 83.17 87.8196 83.587 87.1677 83.4495C86.5158 83.3111 86.0997 82.6713 86.2372 82.0193Z" fill="#FBF7FF" fill-opacity="0.46"/>
<path d="M13.2371 113.891C13.3755 113.239 14.0153 112.822 14.6672 112.96C15.3191 113.098 15.7352 113.737 15.5977 114.389C15.4603 115.041 14.8205 115.458 14.1686 115.32C13.5166 115.182 13.0997 114.543 13.2371 113.891Z" fill="#FBF7FF" fill-opacity="0.46"/>
<path d="M337.311 105.399C337.449 104.747 338.089 104.33 338.741 104.468C339.392 104.606 339.809 105.246 339.671 105.898C339.534 106.55 338.894 106.966 338.242 106.828C337.59 106.691 337.174 106.05 337.311 105.399Z" fill="#FBF7FF" fill-opacity="0.46"/>
<path d="M164.397 221.738C164.535 221.086 165.175 220.67 165.827 220.807C166.478 220.945 166.895 221.586 166.757 222.237C166.62 222.889 165.98 223.306 165.328 223.168C164.676 223.03 164.26 222.39 164.397 221.738Z" fill="#FBF7FF" fill-opacity="0.46"/>
<path d="M365.308 64.0631C365.445 63.4112 366.085 62.9942 366.737 63.1317C367.389 63.27 367.805 63.9099 367.667 64.5619C367.53 65.2138 366.89 65.6299 366.238 65.4924C365.586 65.355 365.169 64.7142 365.308 64.0631Z" fill="#FBF7FF" fill-opacity="0.46"/>
<g opacity="0.2">
<path d="M57.8146 432.863C58.1341 431.352 59.6181 430.386 61.129 430.706C62.6399 431.025 63.6057 432.509 63.2872 434.02C62.9677 435.531 61.4837 436.497 59.9728 436.178C58.4619 435.858 57.4961 434.375 57.8146 432.863Z" fill="#FBF7FF" fill-opacity="0.46"/>
<path d="M167.889 394.132C168.208 392.621 169.692 391.656 171.203 391.975C172.713 392.295 173.68 393.778 173.361 395.289C173.041 396.801 171.557 397.767 170.046 397.447C168.536 397.128 167.57 395.643 167.889 394.132Z" fill="#FBF7FF" fill-opacity="0.46"/>
<path d="M121.217 569.679C121.537 568.168 123.021 567.203 124.532 567.522C126.042 567.841 127.008 569.325 126.689 570.836C126.37 572.347 124.886 573.313 123.375 572.994C121.865 572.674 120.898 571.19 121.217 569.679Z" fill="#FBF7FF" fill-opacity="0.46"/>
<path d="M315.604 487.348C315.923 485.836 317.407 484.87 318.917 485.19C320.428 485.509 321.395 486.994 321.076 488.505C320.756 490.016 319.272 490.981 317.761 490.662C316.25 490.342 315.285 488.859 315.604 487.348Z" fill="#FBF7FF" fill-opacity="0.46"/>
<path d="M316.89 386.992C317.027 386.34 317.667 385.924 318.319 386.061C318.971 386.199 319.387 386.84 319.249 387.491C319.112 388.143 318.472 388.56 317.82 388.422C317.168 388.284 316.751 387.644 316.89 386.992Z" fill="#FBF7FF" fill-opacity="0.46"/>
<path d="M310.37 493.863C310.508 493.212 311.148 492.795 311.8 492.932C312.452 493.071 312.868 493.711 312.731 494.363C312.593 495.014 311.952 495.431 311.301 495.293C310.649 495.155 310.233 494.515 310.37 493.863Z" fill="#FBF7FF" fill-opacity="0.46"/>
<path d="M230.503 449.246C230.64 448.594 231.281 448.178 231.932 448.315C232.584 448.453 233.001 449.093 232.863 449.745C232.725 450.397 232.085 450.814 231.433 450.675C230.781 450.538 230.365 449.898 230.503 449.246Z" fill="#FBF7FF" fill-opacity="0.46"/>
<path d="M236.112 500.793C236.25 500.142 236.89 499.725 237.542 499.862C238.193 500 238.61 500.64 238.472 501.292C238.335 501.943 237.695 502.36 237.043 502.223C236.391 502.085 235.974 501.445 236.112 500.793Z" fill="#FBF7FF" fill-opacity="0.46"/>
<path d="M163.066 478.152C163.203 477.5 163.843 477.084 164.495 477.222C165.147 477.359 165.563 478 165.425 478.651C165.288 479.303 164.648 479.72 163.996 479.582C163.344 479.444 162.927 478.804 163.066 478.152Z" fill="#FBF7FF" fill-opacity="0.46"/>
<path d="M175.768 543.602C175.907 542.95 176.547 542.533 177.198 542.671C177.85 542.808 178.266 543.448 178.129 544.1C177.992 544.752 177.351 545.169 176.7 545.031C176.048 544.893 175.631 544.254 175.768 543.602Z" fill="#FBF7FF" fill-opacity="0.46"/>
<path d="M173.093 555.621C173.231 554.969 173.871 554.552 174.523 554.691C175.174 554.828 175.591 555.468 175.453 556.12C175.316 556.772 174.675 557.188 174.024 557.05C173.372 556.913 172.955 556.273 173.093 555.621Z" fill="#FBF7FF" fill-opacity="0.46"/>
<path d="M164.12 544.281C164.258 543.63 164.898 543.213 165.55 543.35C166.201 543.489 166.618 544.129 166.481 544.781C166.342 545.432 165.702 545.849 165.05 545.711C164.399 545.573 163.983 544.933 164.12 544.281Z" fill="#FBF7FF" fill-opacity="0.46"/>
<path d="M89.0926 362.199C89.2301 361.547 89.8699 361.131 90.5218 361.268C91.1737 361.406 91.5907 362.047 91.4523 362.698C91.3149 363.35 90.6751 363.767 90.0232 363.629C89.3713 363.491 88.9552 362.851 89.0926 362.199Z" fill="#FBF7FF" fill-opacity="0.46"/>
<path d="M89.9012 375.859C90.0396 375.207 90.6794 374.79 91.3313 374.929C91.9832 375.066 92.3992 375.706 92.2618 376.358C92.1244 377.01 91.4836 377.427 90.8326 377.289C90.1807 377.151 89.7638 376.511 89.9012 375.859Z" fill="#FBF7FF" fill-opacity="0.46"/>
<path d="M90.5887 389.39C90.7262 388.739 91.366 388.322 92.0179 388.46C92.6698 388.598 93.0868 389.238 92.9484 389.89C92.811 390.541 92.1712 390.958 91.5193 390.821C90.8673 390.682 90.4513 390.042 90.5887 389.39Z" fill="#FBF7FF" fill-opacity="0.46"/>
<path d="M2.29214 519.523C2.42958 518.871 3.06942 518.455 3.72133 518.593C4.37324 518.73 4.79018 519.37 4.65181 520.022C4.51437 520.674 3.87454 521.091 3.22263 520.952C2.57072 520.815 2.15377 520.175 2.29214 519.523Z" fill="#FBF7FF" fill-opacity="0.46"/>
<path d="M207.675 318.782C207.813 318.13 208.453 317.713 209.105 317.85C209.757 317.989 210.173 318.629 210.035 319.281C209.898 319.933 209.257 320.349 208.606 320.211C207.954 320.074 207.537 319.433 207.675 318.782Z" fill="#FBF7FF" fill-opacity="0.46"/>
<path d="M108.19 297.754C108.329 297.102 108.968 296.686 109.62 296.823C110.272 296.961 110.688 297.6 110.551 298.252C110.413 298.904 109.773 299.321 109.122 299.183C108.47 299.046 108.053 298.406 108.19 297.754Z" fill="#FBF7FF" fill-opacity="0.46"/>
<path d="M52.7176 349.555C52.8551 348.903 53.4949 348.486 54.1468 348.624C54.7987 348.762 55.2157 349.401 55.0773 350.053C54.9399 350.705 54.3001 351.122 53.6482 350.984C52.9963 350.847 52.5802 350.207 52.7176 349.555Z" fill="#FBF7FF" fill-opacity="0.46"/>
<path d="M9.65515 365.859C9.79259 365.207 10.4334 364.791 11.0843 364.929C11.7362 365.066 12.1532 365.707 12.0158 366.358C11.8774 367.01 11.2375 367.427 10.5856 367.289C9.93373 367.151 9.51771 366.511 9.65515 365.859Z" fill="#FBF7FF" fill-opacity="0.46"/>
<path d="M34.8114 278.449C34.9488 277.797 35.5887 277.381 36.2406 277.518C36.8925 277.656 37.3095 278.296 37.1711 278.948C37.0337 279.6 36.3938 280.017 35.7419 279.879C35.09 279.741 34.674 279.101 34.8114 278.449Z" fill="#FBF7FF" fill-opacity="0.46"/>
<path d="M362.249 455.297C362.387 454.645 363.026 454.229 363.678 454.366C364.33 454.504 364.747 455.143 364.609 455.795C364.471 456.447 363.832 456.864 363.18 456.726C362.528 456.588 362.111 455.949 362.249 455.297Z" fill="#FBF7FF" fill-opacity="0.46"/>
<path d="M325.507 447.527C325.645 446.875 326.285 446.458 326.937 446.597C327.589 446.734 328.005 447.374 327.867 448.026C327.73 448.678 327.089 449.094 326.438 448.957C325.786 448.819 325.369 448.179 325.507 447.527Z" fill="#FBF7FF" fill-opacity="0.46"/>
<path d="M260.729 389.239C260.867 388.587 261.507 388.17 262.159 388.307C262.81 388.446 263.227 389.086 263.089 389.738C262.952 390.39 262.312 390.806 261.66 390.668C261.008 390.531 260.592 389.89 260.729 389.239Z" fill="#FBF7FF" fill-opacity="0.46"/>
<path d="M87.8153 505.574C87.9527 504.922 88.5926 504.506 89.2445 504.643C89.8964 504.781 90.3134 505.422 90.175 506.073C90.0376 506.725 89.3977 507.142 88.7458 507.004C88.0939 506.866 87.6779 506.226 87.8153 505.574Z" fill="#FBF7FF" fill-opacity="0.46"/>
<path d="M288.726 347.903C288.863 347.251 289.503 346.834 290.155 346.972C290.807 347.11 291.223 347.75 291.085 348.402C290.948 349.054 290.308 349.47 289.656 349.332C289.004 349.195 288.587 348.554 288.726 347.903Z" fill="#FBF7FF" fill-opacity="0.46"/>
</g>
<path opacity="0.23" d="M1012.67 292.313C1012.19 292.415 1011.68 292.749 1011.13 293.357C978.463 329.246 730.72 349.071 520.737 398.168C310.763 447.266 345.085 467.868 312.519 479.036C279.954 490.203 255.182 494.225 231.113 505.914C207.045 517.602 184.574 522.415 184.574 522.415L182.627 522.152C208.17 527.998 230.949 533.119 238.643 534.683C260.786 539.185 619.601 629.384 649.635 646.842C679.661 664.299 981.498 745.795 981.498 745.795L966.895 958.235C973.309 895.532 980.564 823.393 987.873 745.96C1008.71 525.186 1027.6 289.176 1012.67 292.313ZM-588.509 421.402L-593.972 621.936L-580.068 422.516L-588.509 421.402ZM249.065 1103.17L-605.926 1061.42L-606.491 1082.63L249.065 1103.17Z" fill="url(#paint0_linear_210_442)"/>
<path d="M-2.06624 -11.2695C-2.06624 -11.2695 -42.4381 40.1951 -32.3227 41.2501C-22.2073 42.3051 -6.24988 -10.4516 -8.54761 10.544C-10.8453 31.5396 -13.4717 66.5659 -4.88805 67.2942C3.69551 68.0224 -9.1671 0.158106 -4.58301 8.08349C0.00108719 16.0089 9.49599 71.5984 19.8484 64.0459C30.201 56.4936 -10.2286 -5.22562 -1.39568 -1.71297C7.43723 1.79967 33.1842 34.2588 34.745 47.0144C36.3065 59.7701 43.5568 53.5845 41.1816 43.5103C38.8064 33.4361 -5.28851 -15.688 15.2738 0.806042C35.8363 17.3001 39.7168 0.541578 -0.954666 -11.2271L-2.06624 -11.2695Z" fill="url(#paint1_linear_210_442)"/>
<path fill-rule="evenodd" clip-rule="evenodd" d="M51.6819 12.7196C49.9088 10.0911 47.9477 7.59403 45.8148 5.24798C44.3454 3.60964 44.0828 2.93671 42.5965 1.53903C45.0827 3.80709 50.157 5.98398 53.8794 5.63197C57.8579 5.25572 62.1903 2.55276 62.1903 2.55276C62.1903 2.55276 59.405 -2.26479 55.8614 -3.72866C51.1359 -5.68116 42.5828 -4.5988 38.81 -2.11617C31.3932 -8.84506 26.5553 -11.2278 26.4757 -11.2695L25.5 -9.45732C25.5767 -9.41696 30.6135 -7.33225 37.7808 -0.872194C32.6445 3.23005 31.8758 9.45679 32.2494 13.4107C32.6797 17.9566 35.8438 21.0973 35.8438 21.0973C35.8438 21.0973 40.2853 17.4649 41.5588 14.8236C42.8381 12.1704 43.2463 6.7407 41.5673 2.78302C42.5181 3.74059 43.2064 4.91216 44.1632 5.97748C46.2621 8.31477 47.9868 10.9157 50.0845 14.0174C47.5767 16.6051 45.6228 18.6838 44.0162 22.6178C41.694 28.3041 45.7122 34.4971 45.7122 34.4971C45.7122 34.4971 51.2645 33.0175 53.1323 28.0622C53.931 25.9445 53.641 21.3108 53.3563 18.2945C55.7687 22.4756 57.7253 26.9036 59.1927 31.5024C56.4975 32.8575 50.857 35.5132 49.0918 39.9108C47.7498 43.2526 47.5898 47.3044 48.9756 50.8149C52.3206 50.503 55.6499 49.1697 57.7475 46.5455C60.1579 43.5288 60.6118 38.8139 60.813 36.5091C62.5827 41.0063 61.8761 47.4272 61.8023 53.0419C58.1974 53.5474 54.0368 53.6158 50.6494 56.3898C45.9264 60.2579 45.3642 67.2093 45.3642 67.2093C45.3642 67.2093 53.0788 66.4627 56.5707 64.4298C58.8864 63.0815 60.7992 59.6422 62.125 56.4513C61.9845 62.7448 62.1968 69.0414 62.761 75.3109C60.5158 76.1495 53.1486 79.7333 50.955 83.8808C47.753 89.9321 50.2164 94.2703 50.2164 94.2703C50.2164 94.2703 56.1005 93.9503 59.0961 91.1372C62.3228 88.1066 62.8675 82.4595 63.1908 79.8568C63.8249 85.4379 64.8626 91.9863 65.9388 96.7967C63.7367 98.4472 58.1472 103.015 57.2433 107.939C56.1201 114.061 59.2933 117.492 59.2933 117.492C59.2933 117.492 63.1934 116.388 66.1987 111.679C68.0972 108.703 67.5826 103.76 67.6133 102.371C68.173 106.274 70.7649 112.098 72.1514 113.982C72.4054 116.115 73.9218 124.359 78.0413 127.758C81.5248 130.631 87.5114 130.876 87.5114 130.876C87.5114 130.876 88.3884 125.797 86.5984 121.216C84.8123 116.645 76.7248 114.004 73.803 113.253C71.5617 110.254 70.7421 108.917 68.6425 101.128C70.0094 103.152 73.6704 106.31 77.897 106.753C84.3773 107.43 88.4505 104.414 88.4505 104.414C88.4505 104.414 87.5545 99.4478 81.9806 96.4505C77.0951 93.8229 70.3607 95.1514 67.5904 96.0671C66.4103 90.6813 65.7919 86.2843 64.8959 79.6954C66.4312 83.1342 68.7718 86.2687 72.0077 88.1961C75.1868 90.0902 81.8846 89.5553 81.8846 89.5553C81.8846 89.5553 81.0938 81.3185 76.2095 78.0521C71.4317 74.8576 66.6781 75.2116 64.4662 75.1496C63.8797 68.8813 63.6675 62.5837 63.8294 56.2901C64.3761 59.7002 65.5698 64.186 67.6387 66.2498C71.3965 69.9989 78.3529 70.3966 78.3529 70.3966C78.3529 70.3966 77.6162 62.6226 75.0053 59.2466C72.1945 55.6129 67.9705 53.9712 63.5075 52.8806C63.5963 46.5416 64.2657 41.5471 62.5181 36.3478C63.7739 38.7924 65.611 40.6378 68.2781 42.683C71.8092 45.3912 78.7774 44.5567 78.7774 44.5567C78.7774 44.5567 76.5569 37.7265 73.8317 34.7046C70.2347 30.7154 63.6544 31.089 60.8979 31.3411C60.86 30.9921 56.8267 21.2641 54.2517 17.0122C56.5034 19.6017 59.7361 21.6394 62.3117 22.0342C67.4095 22.8159 72.5426 21.0667 72.5426 21.0667C72.5426 21.0667 69.7442 15.1483 64.9161 13.1881C60.5863 11.4303 53.387 12.5584 51.6819 12.7196Z" fill="url(#paint2_linear_210_442)" fill-opacity="0.79"/>
<g opacity="0.32" filter="url(#filter0_f_210_442)">
<path d="M373.562 723.677C373.562 723.677 346.47 704.694 363.743 652.606C363.743 652.606 396.468 682.787 373.562 723.677Z" fill="#6633CC"/>
<path d="M372.724 741.196C372.724 741.196 341.446 751.961 309.467 707.371C309.467 707.371 353.114 698.627 372.724 741.196Z" fill="#6633CC"/>
<path d="M362.693 731.539C362.693 731.539 331.394 720.845 333.496 666.008C333.496 666.008 373.322 685.888 362.693 731.539Z" fill="#6633CC"/>
</g>
<g opacity="0.32" filter="url(#filter1_f_210_442)">
<path d="M9.86826 714.042C9.86826 714.042 -1.4861 682.971 42.4848 650.139C42.4848 650.139 52.0524 693.617 9.86826 714.042Z" fill="#6633CC"/>
<path d="M-0.843987 727.933C-0.843987 727.933 -32.6551 718.863 -33.3644 663.995C-33.3644 663.995 7.43339 681.801 -0.843987 727.933Z" fill="#6633CC"/>
<path d="M-3.54674 714.273C-3.54674 714.273 -23.0957 687.593 10.0078 643.824C10.0078 643.824 31.2929 682.917 -3.54674 714.273Z" fill="#6633CC"/>
</g>
<path d="M374.066 -27.1758C374.066 -27.1758 362.698 -13.5625 342.25 0.504627C322.118 -13.3378 317.249 1.23667 317.249 1.23667C324.103 7.32031 331.946 5.90495 337.126 3.84454C331.143 7.68855 324.5 11.4492 317.226 14.9396C301.148 -3.50691 292.82 9.42637 292.82 9.42637C298.94 18.4905 309.049 17.5848 314.275 16.3808C307.788 19.3449 300.808 22.0147 293.415 24.2732C279.019 4.32826 269.535 16.4952 269.535 16.4952C274.55 25.5889 283.92 26.0386 289.412 25.4399C281.873 27.5314 273.948 29.2049 265.578 30.1752C255.144 7.66294 243.504 17.9135 243.504 17.9135C246.786 27.9506 256.15 30.0638 261.62 30.4497C258.473 30.7339 255.338 31.0467 252.082 31.1361C247.502 31.2618 243.117 31.1664 238.907 30.8844C234.258 7.34284 220.7 14.2076 220.7 14.2076C221.313 23.6441 228.295 28.1961 233.486 30.2897C225.51 29.4072 218.221 27.8585 211.597 25.783C211.392 0.679476 196.454 5.30863 196.454 5.30863C195.047 18.5683 207.204 24.1175 210.338 25.3484C208.809 24.8481 207.222 24.412 205.763 23.8614C205.364 23.6932 204.919 23.5412 204.483 23.381C197.645 20.699 191.626 17.481 186.298 14.0246C186.33 14.0064 186.358 13.997 186.39 13.9788C186.39 13.9788 184.461 12.2681 181.426 10.6617C175.097 6.00318 169.989 1.13772 165.895 -3.47589C165.005 -4.93984 163.6 -7.01371 161.114 -9.28651C155.157 -17.1285 152.56 -22.9894 152.56 -22.9894L148.626 -21.9829C148.626 -21.9829 150.58 -18.5068 154.595 -13.3356C151.684 -14.4353 148.295 -14.8689 144.394 -13.8846C144.394 -13.8846 142.119 0.796257 165.14 -1.6C168.69 1.89132 172.833 5.49007 177.606 9.06035C172.866 7.42952 166.815 6.93084 160.954 11.2336C160.954 11.2336 164.434 26.0486 185.475 14.4592C189.912 17.2561 194.791 19.8846 200.091 22.26C195.443 21.4539 189.968 21.917 185.04 26.4006C185.04 26.4006 190.163 41.2406 210.612 26.4464C210.612 26.4464 210.252 26.2299 210.201 26.1948C214.953 27.8139 219.971 29.2238 225.321 30.2897C221.102 30.6542 216.598 32.354 213.037 36.9238C213.037 36.9238 220.603 50.6753 238.244 32.623C238.244 32.623 237.258 32.2514 236.437 31.9368C241.154 32.4416 246.034 32.7145 251.167 32.6917C247.461 34.1777 243.875 36.8734 241.72 41.8193C241.72 41.8193 252.269 53.007 264.709 32.0053C269.748 31.5 274.715 30.8045 279.531 29.8321C276.295 31.9919 273.411 35.2114 272.257 40.3095C272.257 40.3095 284.641 49.2691 292.935 26.515C296.072 25.5958 299.118 24.5423 302.13 23.4725C299.95 25.7892 298.216 28.808 297.669 32.8975C297.669 32.8975 310.712 40.6496 316.952 17.4788C321.985 15.1841 326.732 12.7485 331.271 10.2271C328.857 13.37 327.164 17.4558 327.794 22.7633C327.794 22.7633 342.164 26.9669 342.638 3.50138C366.369 -11.6269 380.632 -26.9471 380.632 -26.9471L374.066 -27.1758ZM164.408 -27.0843C155.872 -14.5199 168.045 -1.78301 168.045 -1.78301C179.808 -24.1156 164.408 -27.0843 164.408 -27.0843ZM176.874 -8.62305C175.469 -8.72932 174.518 -8.53154 174.518 -8.53154C171.341 6.32257 187.419 13.5213 187.419 13.5213C189.287 -5.31775 181.089 -8.30432 176.874 -8.62305Z" fill="url(#paint3_radial_210_442)" fill-opacity="0.72"/>
<path opacity="0.94" d="M523.025 701.38C525.92 700.365 546.591 700.651 544.653 704.731L536.657 707.524C530.696 708.101 523.293 707.709 520.13 707.885C503.392 708.818 487.092 712.548 470.444 713.707C465.74 714.035 462.351 712.275 458.677 711.317C458.572 711.364 458.491 711.47 458.377 711.496C456.09 711.999 453.868 711.626 451.646 711.157L451.521 711.189L451.52 711.189C450.793 711.374 450.075 711.557 449.27 711.899L449.457 710.752C447.429 710.317 445.378 709.924 443.31 710.235C432.565 711.852 421.358 716.442 410.556 716.423C401.976 716.407 393.745 711.547 385.352 710.093C385.311 710.086 385.271 710.1 385.23 710.092C379.213 712.669 356.134 713.885 351.268 713.858C330.622 713.743 308.645 710.252 288.08 713.506C283.353 714.254 207.073 713.051 206.681 712.751C203.844 710.578 258.299 709.801 256.031 706.596C250.183 703.581 245.186 699.181 247.272 694.168C248.555 691.086 254.998 692.412 256.709 694.07C258.097 695.414 258.422 700.43 259.726 699.008C260.261 698.424 259.881 697.441 259.922 696.654C260.02 694.741 260.229 674.304 266.203 672.899C267.057 672.698 268.015 672.895 269.121 673.579C273.63 676.369 271.036 691.726 270.124 695.926C269.792 697.453 269.347 698.956 269.002 700.478C268.889 700.979 268.508 702.453 268.72 701.987C270.285 698.535 278.519 676.364 284.65 678.798C290.626 681.174 281.689 694.512 280.313 697.342C278.764 700.528 279.979 698.179 278.68 700.985C278.315 701.773 276.759 703.657 277.57 703.334C282.029 701.559 294.049 686.945 299.766 691.291C305.021 695.281 295.338 702.54 292.508 704.775C290.821 706.112 285.647 709.421 287.796 709.218C293.676 708.662 298.428 702.257 307.161 702.503C310.835 702.606 313.454 704.762 315.717 707.472C316.049 707.866 316.276 708.992 316.69 708.684C322.245 704.537 318.279 699.065 328.067 698.784C333.825 698.62 340.15 698.523 345.097 701.868C346.914 703.096 346.751 708.315 348.722 707.353C353.369 705.083 354.926 700.147 361.729 699.093C364.673 698.638 368.606 698.716 370.674 701.256C371.558 702.346 370.577 705.577 371.955 705.279C375.702 704.469 376.853 699.943 381.541 700.622C381.792 700.659 382.165 701.024 382.481 701.232C381.589 698.791 381.419 696.407 383.738 694.838C386.479 692.979 390.493 697.826 391.094 696.147C391.499 695.014 391.223 683.156 395.659 684.881C399.17 686.246 398.806 694.234 398.789 697.337C398.789 697.402 398.741 700.189 398.862 700.176C403.566 699.693 408.358 688.405 415.462 693.626C417.895 695.414 416.662 698.338 414.813 700.204C420.547 700.489 427.342 704.92 427.853 704.745C432.176 703.255 434.965 699.025 439.879 698.411C441.996 698.147 444.267 697.979 446.205 698.96C446.618 699.17 447.348 700.183 447.356 699.721C447.429 697.308 436.814 689.832 445.175 687.874C450.049 686.733 450.381 692.98 451.979 696.124C466.867 696.431 456.844 684.661 464.345 683.815C468.457 683.35 465.829 691.753 466.64 691.768C469.73 691.823 471.741 683.965 476.785 685.182C480.759 686.142 480.07 691.625 478.926 694.221C478.261 695.74 475.585 699.475 477.134 698.861C481.221 697.242 486.435 686.086 493.045 690.405C495.899 692.275 493.993 698.586 493.045 700.79C492.558 701.929 489.971 703.8 491.204 704.01C491.204 704.01 495.348 700.498 495.94 700.203C500.262 698.04 504.941 696.461 509.815 696.355C521.03 696.112 513.464 704.73 523.025 701.38Z" fill="#241A4A"/>
<path opacity="0.94" d="M233.705 708.933C236.648 708.068 257.277 709.414 255.132 713.389L247.004 715.769C241.022 716.039 233.648 715.267 230.48 715.281C213.716 715.354 197.247 718.242 180.561 718.546C175.847 718.632 172.552 716.7 168.932 715.555C168.824 715.596 168.738 715.698 168.623 715.718C166.314 716.103 164.114 715.617 161.919 715.034L161.792 715.06L161.791 715.06C161.056 715.207 160.329 715.352 159.508 715.653L159.753 714.518C157.751 713.979 155.722 713.481 153.641 713.685C142.827 714.749 131.399 718.758 120.612 718.185C112.045 717.728 104.074 712.452 95.7665 710.57C95.7264 710.56 95.6851 710.572 95.645 710.563C89.5036 712.827 66.3923 712.857 61.5345 712.581C40.9211 711.406 19.1529 706.792 -1.55241 708.987C-6.31151 709.491 -82.4293 704.375 -82.8051 704.055C-85.5273 701.74 -31.1039 703.758 -33.2046 700.44C-38.8907 697.129 -43.6553 692.479 -41.3143 687.58C-39.8749 684.568 -33.5086 686.223 -31.8848 687.967C-30.5681 689.379 -30.5008 694.406 -29.1255 693.052C-28.5611 692.497 -28.8896 691.496 -28.8087 690.711C-28.6126 688.806 -27.3549 668.407 -21.3173 667.31C-20.4542 667.154 -19.507 667.399 -18.4375 668.139C-14.0778 671.157 -17.4566 686.361 -18.5832 690.508C-18.9928 692.016 -19.5145 693.494 -19.9368 694.997C-20.0751 695.491 -20.5314 696.944 -20.2961 696.489C-18.5559 693.122 -9.19481 671.403 -3.1971 674.148C2.64968 676.828 -6.96026 689.689 -8.47983 692.445C-10.1902 695.548 -8.85649 693.264 -10.2979 696C-10.7028 696.768 -12.3536 698.569 -11.5263 698.289C-6.98256 696.744 5.77123 682.767 11.2578 687.4C16.301 691.655 6.25863 698.407 3.31747 700.495C1.56435 701.743 -3.77244 704.782 -1.61583 704.689C4.28423 704.436 9.35881 698.283 18.0685 698.977C21.7319 699.268 24.2371 701.556 26.3576 704.378C26.6694 704.789 26.8384 705.926 27.2672 705.639C33.0277 701.782 29.3481 696.114 39.1376 696.336C44.8962 696.467 51.2181 696.696 55.9866 700.29C57.7378 701.609 57.308 706.813 59.3254 705.954C64.0824 703.925 65.8906 699.076 72.7395 698.372C75.7027 698.068 79.6266 698.348 81.5614 700.991C82.3882 702.125 81.2424 705.301 82.6345 705.075C86.4177 704.458 87.8 699.997 92.4461 700.916C92.6953 700.965 93.0492 701.349 93.3544 701.573C92.5887 699.089 92.5409 696.7 94.9377 695.252C97.7705 693.536 101.531 698.582 102.216 696.936C102.679 695.826 103.012 683.969 107.354 685.92C110.79 687.463 110.016 695.422 109.841 698.52C109.837 698.585 109.646 701.365 109.768 701.359C114.49 701.118 119.855 690.09 126.682 695.669C129.02 697.58 127.639 700.437 125.697 702.205C131.408 702.784 137.967 707.558 138.486 707.409C142.879 706.144 145.882 702.062 150.822 701.702C152.949 701.546 155.225 701.495 157.11 702.574C157.513 702.805 158.19 703.854 158.221 703.393C158.418 700.987 148.2 692.976 156.651 691.45C161.577 690.56 161.588 696.816 163.022 700.038C177.876 701.108 168.47 688.84 176.004 688.379C180.134 688.126 177.079 696.383 177.888 696.44C180.971 696.653 183.383 688.909 188.358 690.384C192.277 691.546 191.307 696.986 190.032 699.521C189.29 701.003 186.426 704.596 188.004 704.062C192.169 702.655 197.949 691.781 204.327 696.434C207.082 698.447 204.855 704.653 203.795 706.806C203.25 707.918 200.571 709.654 201.791 709.927C201.791 709.927 206.109 706.632 206.716 706.368C211.143 704.429 215.897 703.093 220.77 703.237C231.983 703.569 223.985 711.788 233.705 708.933Z" fill="#241A4A"/>
<g filter="url(#filter2_f_210_442)">
<path d="M-471.184 706.669C-471.184 706.669 -177.88 710.456 -153.224 710.484C-117.513 710.525 -19.8787 697.819 31.9874 704.46C83.8536 711.101 179.42 704.757 201.884 704.757C224.35 704.757 292.931 708.909 321.426 708.909C349.921 708.909 383.436 707.175 414.877 707.175C446.318 707.175 553.549 707.027 574.587 707.175C595.625 707.324 826.036 702.855 848.516 703.781C871.004 704.706 946.217 700.155 946.217 700.155L938.381 895.949L-621.164 889.606L-606.545 698.734L-471.184 706.669Z" fill="#241A4A"/>
</g>
<path d="M108.811 588.536C108.811 588.536 122.996 581.945 124.825 590.247C126.643 598.548 131.748 614.933 122.561 615.488C113.373 616.044 101.511 606.91 108.811 588.536Z" fill="#151226"/>
<path d="M116.556 573.717C116.556 573.717 120.75 566.603 132.054 570.314C132.054 570.314 134.295 571.293 138.718 571.215C138.718 571.215 136.273 575.878 135.053 580.1C133.833 584.321 130.533 588.295 127.712 587.749C127.712 587.749 114.257 576.562 116.567 573.719L116.556 573.717Z" fill="url(#paint4_linear_210_442)"/>
<path d="M116.556 573.717C116.556 573.717 120.75 566.603 132.054 570.314C132.054 570.314 134.295 571.293 138.718 571.215C138.718 571.215 136.273 575.878 135.053 580.1C133.833 584.321 130.533 588.295 127.712 587.749C127.712 587.749 114.257 576.562 116.567 573.719L116.556 573.717Z" fill="url(#paint5_linear_210_442)" fill-opacity="0.2"/>
<path d="M113.007 575.108C113.007 575.108 117.79 571.198 115.051 562.73C115.051 562.73 112.425 557.642 116.732 560.11C116.732 560.11 118.215 561.342 118.626 564.323C118.626 564.323 124.495 558.712 118.537 545.775C118.537 545.775 113.411 537.456 119.787 541.459C119.787 541.459 121.835 542.633 123.53 547.253C123.53 547.253 124.563 543.551 126.656 546.246C128.749 548.941 125.54 547.986 124.998 553.306C124.445 558.624 122.523 570.536 117.193 576.63C111.864 582.723 110.939 577.019 113.009 575.097L113.007 575.108Z" fill="url(#paint6_linear_210_442)"/>
<path d="M113.007 575.108C113.007 575.108 117.79 571.198 115.051 562.73C115.051 562.73 112.425 557.642 116.732 560.11C116.732 560.11 118.215 561.342 118.626 564.323C118.626 564.323 124.495 558.712 118.537 545.775C118.537 545.775 113.411 537.456 119.787 541.459C119.787 541.459 121.835 542.633 123.53 547.253C123.53 547.253 124.563 543.551 126.656 546.246C128.749 548.941 125.54 547.986 124.998 553.306C124.445 558.624 122.523 570.536 117.193 576.63C111.864 582.723 110.939 577.019 113.009 575.097L113.007 575.108Z" fill="url(#paint7_linear_210_442)" fill-opacity="0.2"/>
<path d="M79.0152 634.214C79.0152 634.214 86.1861 644.196 95.2573 637.704C95.2573 637.704 95.743 628.527 99.222 625.421C100.514 624.27 120.478 634.839 129.308 632.369C129.308 632.369 136.446 633.751 137.431 628.839C138.418 623.916 126.13 617.857 128.756 597.078C131.394 576.3 104.941 563.264 88.3905 574.511C71.8377 585.768 78.9106 600.422 80.8301 609.064C82.7602 617.709 79.0132 634.225 79.0132 634.225L79.0152 634.214Z" fill="url(#paint8_linear_210_442)"/>
<path d="M79.0152 634.214C79.0152 634.214 86.1861 644.196 95.2573 637.704C95.2573 637.704 95.743 628.527 99.222 625.421C100.514 624.27 120.478 634.839 129.308 632.369C129.308 632.369 136.446 633.751 137.431 628.839C138.418 623.916 126.13 617.857 128.756 597.078C131.394 576.3 104.941 563.264 88.3905 574.511C71.8377 585.768 78.9106 600.422 80.8301 609.064C82.7602 617.709 79.0132 634.225 79.0132 634.225L79.0152 634.214Z" fill="url(#paint9_linear_210_442)" fill-opacity="0.2"/>
<path d="M89.2666 580.204C89.2666 580.204 84.9252 562.122 60.3139 559.369C60.3139 559.369 61.7608 568.108 62.2053 574.42C62.3098 575.974 62.3941 577.869 62.6276 578.859C64.0198 585.02 76.081 590.702 82.1789 591.782L89.2666 580.204Z" fill="url(#paint10_linear_210_442)"/>
<path d="M89.2666 580.204C89.2666 580.204 84.9252 562.122 60.3139 559.369C60.3139 559.369 61.7608 568.108 62.2053 574.42C62.3098 575.974 62.3941 577.869 62.6276 578.859C64.0198 585.02 76.081 590.702 82.1789 591.782L89.2666 580.204Z" fill="url(#paint11_linear_210_442)" fill-opacity="0.2"/>
<path opacity="0.74" d="M118.076 598.11C116.886 588.597 108.253 581.834 98.7939 583.004C89.3346 584.174 82.622 592.835 83.8118 602.348C85.0016 611.86 93.6347 618.623 103.105 617.455C112.564 616.285 119.277 607.625 118.087 598.112L118.076 598.11Z" fill="url(#paint12_linear_210_442)" fill-opacity="0.28"/>
<path d="M84.7513 580.29C84.7513 580.29 77.9635 566.003 62.8961 563.563C62.8961 563.563 62.1797 574.485 63.8481 578.31C65.5166 582.135 75.8225 585.62 79.1757 585.636C82.5396 585.653 86.3023 583.214 84.7513 580.29Z" fill="url(#paint13_linear_210_442)"/>
<path d="M84.7513 580.29C84.7513 580.29 77.9635 566.003 62.8961 563.563C62.8961 563.563 62.1797 574.485 63.8481 578.31C65.5166 582.135 75.8225 585.62 79.1757 585.636C82.5396 585.653 86.3023 583.214 84.7513 580.29Z" fill="url(#paint14_linear_210_442)" fill-opacity="0.2"/>
<path fill-rule="evenodd" clip-rule="evenodd" d="M80.4101 588.917C81.5738 588.937 82.5978 588.309 83.1386 587.366C83.0379 587.388 82.9395 587.409 82.8433 587.43C83.7246 584.61 81.7473 583.15 80.5131 582.751C78.8102 582.722 77.4066 584.08 77.3782 585.783C77.3658 586.524 77.6159 587.208 78.0428 587.747C78.5967 588.447 79.4483 588.901 80.4101 588.917Z" fill="#D9D9D9"/>
<path d="M83.1386 587.366C83.3891 586.929 83.5359 586.425 83.5449 585.886C83.5734 584.183 82.216 582.779 80.5131 582.751C81.7473 583.15 83.7246 584.61 82.8433 587.43C82.9395 587.409 83.0379 587.388 83.1386 587.366Z" fill="#BDB9B9"/>
<path fill-rule="evenodd" clip-rule="evenodd" d="M80.4101 588.917C81.5738 588.937 82.5978 588.309 83.1386 587.366C82.9499 587.7 82.8335 587.856 82.7245 588.002C82.6266 588.133 82.5348 588.256 82.4021 588.492C81.8096 589.467 82.3418 591.266 82.8424 592.958C83.0658 593.714 83.2829 594.447 83.391 595.077L83.3846 595.085C82.5348 595.715 81.9533 595.825 81.7688 595.801C81.3394 595.411 81.0607 594.229 80.7928 593.093C80.687 592.645 80.5829 592.203 80.4719 591.821C79.8709 589.522 79.3334 589.039 78.7722 588.535C78.5355 588.322 78.2945 588.105 78.0428 587.747C78.5967 588.447 79.4483 588.901 80.4101 588.917Z" fill="#D9D9D9"/>
<path d="M81.7688 595.801C82.3646 596.342 82.9951 595.565 83.3846 595.085C82.5348 595.715 81.9533 595.825 81.7688 595.801Z" fill="#C8C6C6"/>
<path opacity="0.48" d="M121.2 595.823C120.635 593.835 119.731 592.348 119.191 592.51C118.653 592.662 118.678 594.401 119.243 596.389C119.808 598.377 120.712 599.864 121.252 599.702C121.791 599.55 121.765 597.811 121.2 595.823Z" fill="#FFFDF7"/>
<path opacity="0.38" d="M106.634 614.717C104.614 614.326 102.886 614.447 102.782 614.994C102.678 615.541 104.226 616.319 106.243 616.721C108.263 617.112 109.991 616.991 110.095 616.444C110.199 615.897 108.651 615.119 106.634 614.717Z" fill="#FFFDF7"/>
<path opacity="0.38" d="M98.3087 613.114C97.0798 612.876 96.0027 613.123 95.8971 613.681C95.7915 614.239 96.7001 614.882 97.929 615.12C99.1579 615.357 100.235 615.11 100.341 614.552C100.446 613.995 99.5376 613.352 98.3087 613.114Z" fill="#FFFDF7"/>
<path opacity="0.38" d="M102.58 617.177C101.116 616.894 99.8653 617.063 99.7612 617.554C99.6678 618.047 100.766 618.682 102.228 618.977C103.692 619.26 104.942 619.091 105.046 618.6C105.139 618.106 104.041 617.471 102.58 617.177Z" fill="#FFFDF7"/>
<path opacity="0.48" d="M128.139 596.025C128.229 594.319 127.975 592.914 127.569 592.891C127.164 592.868 126.761 594.235 126.671 595.941C126.58 597.646 126.835 599.052 127.24 599.075C127.646 599.098 128.049 597.731 128.15 596.027L128.139 596.025Z" fill="#FFFDF7"/>
<path opacity="0.61" d="M137.497 628.448C137.203 626.079 136.295 624.735 134.63 622.412C132.237 619.081 130.805 616.636 125.758 617.259C119.361 618.055 114.575 623.209 113.977 629.408C113.955 629.581 118.242 631.979 122.785 632.792C125.077 633.202 127.545 632.69 129.331 632.325C129.814 632.229 132.449 632.94 134.404 632.207C136.336 631.48 137.61 629.314 137.499 628.437L137.497 628.448Z" fill="url(#paint15_linear_210_442)"/>
<path d="M129.128 632.234C129.128 632.234 135.869 634.539 137.356 628.969C138.843 623.398 133.342 624.368 130.893 625.428C128.455 626.49 126.084 627.898 129.128 632.234Z" fill="#3A2413"/>
<path d="M111.451 609.225C111.451 609.225 116.23 596.444 104.152 589.214C97.7949 585.404 87.1741 590.896 87.3191 592.003C88.0098 597.072 91.6773 611.166 111.449 609.236L111.451 609.225Z" fill="#391F11"/>
<path d="M111.441 609.321C111.441 609.321 115.885 597.43 104.643 590.696C98.7348 587.151 88.8505 592.263 88.9904 593.279C89.6265 597.994 93.0458 611.117 111.443 609.31L111.441 609.321Z" fill="url(#paint16_linear_210_442)"/>
<path d="M111.523 602.351C112.358 597.938 109.474 593.674 105.086 592.824C100.698 591.975 96.4601 594.859 95.6245 599.273C94.789 603.686 97.6737 607.95 102.061 608.8C106.449 609.649 110.687 606.765 111.523 602.351Z" fill="url(#paint17_linear_210_442)"/>
<path d="M91.8315 577.936C91.8315 577.936 85.8202 573.882 88.0458 563.53C88.0458 563.53 90.519 557.194 85.7933 560.626C85.7933 560.626 84.2092 562.265 84.075 565.841C84.075 565.841 76.6058 559.892 82.062 543.885C82.062 543.885 87.0765 533.428 80.1183 538.939C80.1183 538.939 77.8688 540.583 76.4194 546.249C76.4194 546.249 74.8001 541.99 72.6639 545.433C70.5298 548.866 74.1606 547.357 75.4063 553.59C76.6521 559.823 80.2533 573.683 87.1485 580.265C94.0436 586.847 94.481 579.972 91.8402 577.949L91.8315 577.936Z" fill="url(#paint18_linear_210_442)"/>
<path d="M91.8315 577.936C91.8315 577.936 85.8202 573.882 88.0458 563.53C88.0458 563.53 90.519 557.194 85.7933 560.626C85.7933 560.626 84.2092 562.265 84.075 565.841C84.075 565.841 76.6058 559.892 82.062 543.885C82.062 543.885 87.0765 533.428 80.1183 538.939C80.1183 538.939 77.8688 540.583 76.4194 546.249C76.4194 546.249 74.8001 541.99 72.6639 545.433C70.5298 548.866 74.1606 547.357 75.4063 553.59C76.6521 559.823 80.2533 573.683 87.1485 580.265C94.0436 586.847 94.481 579.972 91.8402 577.949L91.8315 577.936Z" fill="url(#paint19_linear_210_442)" fill-opacity="0.2"/>
<path d="M138.286 605.68C138.554 599.229 136.078 593.88 132.76 593.738C129.431 593.594 126.526 598.701 126.259 605.141C125.99 611.592 128.467 616.941 131.785 617.083C135.114 617.227 138.019 612.12 138.286 605.68Z" fill="url(#paint20_linear_210_442)" stroke="#391F11" stroke-width="0.863671" stroke-linecap="round" stroke-linejoin="round"/>
<path d="M126.091 603.862C126.091 603.862 124.407 600.29 119.568 604.144" stroke="#391F11" stroke-width="0.863671" stroke-linecap="round" stroke-linejoin="round"/>
<path d="M119.118 607.943C120.488 600.704 116.28 593.797 109.709 592.525C103.137 591.253 96.706 596.088 95.3336 603.337C93.9613 610.587 98.1719 617.483 104.743 618.755C111.314 620.027 117.746 615.192 119.118 607.943Z" fill="url(#paint21_linear_210_442)" stroke="#391F11" stroke-width="0.863671" stroke-linecap="round" stroke-linejoin="round"/>
<path d="M177.819 726.612C178.763 724.463 174.033 717.167 169.3 713.633C166.211 711.326 158.717 710.95 158.717 710.95C158.717 710.95 154.966 710.599 150.519 713.314C145.841 716.17 145.719 707.892 144.313 724.481C146.853 725.867 148.008 725.897 151.127 726.444C156.354 727.361 157.48 727.634 158.433 727.999C159.387 728.365 161.092 729.878 162.367 730.062C163.642 730.246 164.435 729.433 164.622 728.288C164.81 727.142 163.98 726.026 162.908 725.157C162.086 724.493 161.26 722.818 159.299 721.864L161.918 721.378C163.092 721.828 162.94 721.785 163.734 722.469C164.891 723.468 165.332 723.481 166.401 724.945C168.053 727.207 167.729 727.226 169.051 728.562C169.778 729.298 172.479 729.212 173.127 728.314C174.206 729.163 175.29 728.892 176.012 727.593C176.188 727.864 177.189 728.044 177.819 726.612Z" fill="url(#paint22_linear_210_442)"/>
<path d="M148.069 727.64C153.323 732.308 156.628 713.68 157.328 711.16C158.029 708.64 146.161 709.27 142.629 708.907C138.955 707.048 128.864 704.733 122.946 703.091C123.029 694.479 117.755 694.197 114.354 682.544C110.953 670.891 108.402 666.522 108.402 666.522C94.5364 654.421 91.2224 653.659 81.7736 663.6L81.5129 683.13L89.3217 702.767L104.297 717.617L118.05 727.241C123.525 728.29 137.192 729.84 148.069 727.64Z" fill="url(#paint23_linear_210_442)"/>
<path d="M72.4691 659.658C72.4691 659.658 74.5717 681.809 75.91 685.332C77.2482 688.854 78.7873 695.526 80.5304 699.867C82.2734 704.208 82.9515 704.132 83.8004 699.725C84.6491 695.33 93.2448 686.119 106.827 687.1C117.873 687.898 119.633 686.497 117.545 680.737C115.458 674.978 99.7526 631.79 78.7499 645.093C74.6764 648.198 72.1506 653.721 72.4691 659.658Z" fill="url(#paint24_linear_210_442)"/>
<path d="M72.4691 659.658C72.4691 659.658 74.5717 681.809 75.91 685.332C77.2482 688.854 78.7873 695.526 80.5304 699.867C82.2734 704.208 82.9515 704.132 83.8004 699.725C84.6491 695.33 93.2448 686.119 106.827 687.1C117.873 687.898 119.633 686.497 117.545 680.737C115.458 674.978 99.7526 631.79 78.7499 645.093C74.6764 648.198 72.1506 653.721 72.4691 659.658Z" fill="url(#paint25_linear_210_442)" fill-opacity="0.56"/>
<path d="M95.9163 631.937C95.9163 631.937 93.7958 636.594 93.3209 637.972C93.3209 637.972 82.0031 638.034 78.7832 629.833C78.7832 629.833 80.28 626.957 80.9547 625.091C81.6293 623.225 77.3235 624.253 76.5543 625.41C75.7852 626.566 75.2349 628.998 73.8529 629.87C72.4808 630.746 68.2371 632.057 66.7629 633.262C65.2932 634.456 48.7784 658.981 48.7784 658.981L91.6443 676.657C91.6443 676.657 107.997 655.112 96.6785 644.275C96.6785 644.275 95.6029 644.321 98.932 637.731C98.932 637.731 101.372 634.469 95.892 631.938L95.9163 631.937Z" fill="url(#paint26_linear_210_442)"/>
<path d="M105.129 658.619C105.129 658.619 118.921 740.413 111.691 752.412C111.691 752.412 114.784 771.283 111.409 774.375C107.906 777.583 91.7472 772.902 80.2158 771.285C57.5548 768.103 29.969 791.715 29.969 764.665C31.5864 758.685 21.461 642.224 59.4689 650.052C59.4689 650.052 80.2153 667.195 91.7575 662.588C92.986 662.885 105.129 658.619 105.129 658.619Z" fill="url(#paint27_linear_210_442)"/>
<path d="M105.132 658.617C105.132 658.617 118.924 740.411 111.694 752.41C111.694 752.41 114.786 771.281 111.412 774.373C107.909 777.581 91.75 772.9 80.2185 771.283C57.5576 768.102 30.9481 777.253 32.563 771.284C34.1805 765.303 21.4637 642.222 59.4717 650.05C59.4717 650.05 80.2181 667.193 91.7602 662.586C92.9887 662.883 105.132 658.617 105.132 658.617Z" fill="url(#paint28_linear_210_442)" fill-opacity="0.56"/>
<path d="M129.017 797.46C89.649 819.63 33.4672 802.316 28.318 798.805C26.0401 783.905 28.8998 777.871 45.6291 773.626C99.6329 746.521 47.104 763.787 108.046 753.11C168.989 742.433 183.817 765.245 174.163 785.123C164.508 805 152.284 804.252 130.264 803.833C124.506 802.908 123.105 801.592 129.017 797.46Z" fill="url(#paint29_linear_210_442)"/>
<path d="M79.358 629.824C78.3176 631.834 72.3191 630.08 71.1494 631.308C69.9798 632.537 71.1543 635.072 67.6639 637.707C63.2172 641.07 56.5039 641.331 83.8337 662.489C83.8337 662.489 102.05 656.821 98.8327 651.162C95.5804 645.46 95.6758 644.719 95.6758 644.719C95.6758 644.719 96.208 642.304 96.6237 640.879C97.5389 637.723 100.459 634.999 95.1344 634.218C95.1344 634.218 96.8173 629.711 97.4871 629.105C98.1569 628.499 106.838 635.509 109.465 644.517C109.465 644.517 110.665 646.875 108.796 651.834C106.928 656.794 111.168 660.78 91.742 664.132L82.8885 665.819C82.8885 665.819 54.597 663.906 43.5529 653.798C41.8144 652.202 40.4627 643.108 43.034 638.443C43.7754 637.109 44.953 635.303 46.7448 632.89C54.8115 622.088 56.0386 618.937 81.664 624.023C81.664 624.023 80.3985 627.815 79.358 629.824Z" fill="url(#paint30_linear_210_442)"/>
<path d="M79.358 629.824C78.3176 631.834 72.3191 630.08 71.1494 631.308C69.9798 632.537 71.1543 635.072 67.6639 637.707C63.2172 641.07 56.5039 641.331 83.8337 662.489C83.8337 662.489 102.05 656.821 98.8327 651.162C95.5804 645.46 95.6758 644.719 95.6758 644.719C95.6758 644.719 96.208 642.304 96.6237 640.879C97.5389 637.723 100.459 634.999 95.1344 634.218C95.1344 634.218 96.8173 629.711 97.4871 629.105C98.1569 628.499 106.838 635.509 109.465 644.517C109.465 644.517 110.665 646.875 108.796 651.834C106.928 656.794 111.168 660.78 91.742 664.132L82.8885 665.819C82.8885 665.819 54.597 663.906 43.5529 653.798C41.8144 652.202 40.4627 643.108 43.034 638.443C43.7754 637.109 44.953 635.303 46.7448 632.89C54.8115 622.088 56.0386 618.937 81.664 624.023C81.664 624.023 80.3985 627.815 79.358 629.824Z" fill="url(#paint31_linear_210_442)" fill-opacity="0.56"/>
<path d="M200.553 752.844C203.464 750.025 262.554 666.36 261.119 660.91C258.104 659.769 256.35 659.521 253.138 659.485L194.186 743.546L103.95 727.432L89.5422 742.664L88.7718 746.977L182.555 763.725L187.612 764.628C190.955 761.64 198.224 755.099 200.553 752.844Z" fill="url(#paint32_linear_210_442)"/>
<g filter="url(#filter3_f_210_442)">
<path d="M253.516 662.664L251.31 662.259L196.32 740.605L198.227 741.876L253.516 662.664Z" fill="url(#paint33_linear_210_442)" fill-opacity="0.7"/>
</g>
<path d="M253.555 662.465L251.349 662.06L196.359 740.406L198.266 741.677L253.555 662.465Z" fill="url(#paint34_linear_210_442)" fill-opacity="0.09"/>
<path d="M169.527 752.293L182.344 741.457L130.884 732.267L116.638 742.848L169.527 752.293Z" fill="url(#paint35_linear_210_442)" fill-opacity="0.53"/>
<path d="M119.602 736.225L127.207 731.609L110.497 728.625L102.399 733.152L119.602 736.225Z" fill="url(#paint36_linear_210_442)" fill-opacity="0.61"/>
<g filter="url(#filter4_f_210_442)">
<path d="M132.663 563.649C132.663 563.649 225.037 656.345 241.742 681.065L201.715 734.162L38.3778 678.387L132.663 563.649Z" fill="url(#paint37_linear_210_442)" fill-opacity="0.11"/>
</g>
<path d="M80.4961 589.297C82.2349 594.873 85.6903 608.011 85.6021 615.952C85.4919 625.879 84.6107 638.519 85.9456 647.262M85.9456 647.262C87.2805 656.005 81.491 670.38 89.2007 689.127M85.9456 647.262C92.9685 641.287 92.1926 634.136 102.48 626.136" stroke="#D9D9D9" stroke-width="0.325989"/>
<path d="M161.974 747.254C162.988 744.999 157.215 736.985 151.584 732.993C147.909 730.388 139.194 729.651 139.194 729.651C139.194 729.651 134.826 729.108 129.767 731.812C124.445 734.657 123.986 725.799 122.991 743.476C125.993 745.072 127.336 745.156 130.978 745.881C133.219 746.077 138.833 745.672 141.36 745.445C142.604 745.772 145.33 746.546 146.288 747.027C147.486 747.629 148.078 749.398 149.034 749.482C149.99 749.566 150.296 748.523 150.195 748.051C150.114 747.673 149.471 746.326 148.653 744.961C150.659 747.454 150.389 746.622 151.995 748.008C153.601 749.393 154.585 748.986 155.303 748.055C156.588 749.011 158.009 748.717 158.797 747.36C160.205 748.12 161.298 748.759 161.974 747.254Z" fill="url(#paint38_linear_210_442)"/>
<path d="M52.0288 692.194C52.0288 692.194 45.7914 656.205 77.0442 668.088C77.0442 668.088 78.2298 670.841 84.9661 676.091C91.7024 681.341 87.5385 680.845 88.8882 682.414C90.2489 683.98 92.809 687.08 93.6557 689.942C94.5023 692.804 94.1868 695.742 98.9875 699.724C103.802 703.715 115.08 711.726 119.919 717.462C124.749 723.212 127.095 725.27 130.387 726.484C133.677 727.688 135.924 726.662 135.239 734.254C134.553 741.847 137.391 744.545 134.368 747.992C131.354 751.425 128.608 752.064 123.162 748.004C117.727 743.942 112.156 750.182 102.855 742.476C93.5577 734.78 87.7503 734.23 84.3559 729.92C80.9725 725.607 67.9626 722.473 63.682 711.606C59.4014 700.74 50.9541 698.562 52.0177 692.197L52.0288 692.194Z" fill="url(#paint39_linear_210_442)"/>
<path d="M40.2137 671.145C40.2137 671.145 48.6093 691.754 50.9057 694.743C53.2022 697.732 56.5982 703.678 59.5182 707.335C62.4382 710.991 63.0655 710.723 62.6087 706.258C62.1549 701.805 65.6905 688.273 78.9797 685.306C92.269 682.339 93.111 683.282 89.4522 678.367C85.7933 673.451 58.3109 636.606 42.0315 655.388C39.0254 659.534 38.198 665.55 40.2137 671.145Z" fill="url(#paint40_linear_210_442)" fill-opacity="0.56"/>
<path d="M40.2137 671.145C40.2137 671.145 48.6093 691.754 50.9057 694.743C53.2022 697.732 56.5982 703.678 59.5182 707.335C62.4382 710.991 63.0655 710.723 62.6087 706.258C62.1549 701.805 65.6905 688.273 78.9797 685.306C92.269 682.339 93.111 683.282 89.4522 678.367C85.7933 673.451 58.3109 636.606 42.0315 655.388C39.0254 659.534 38.198 665.55 40.2137 671.145Z" fill="url(#paint41_linear_210_442)"/>
<path d="M108.516 776.916L111.991 808.397C111.991 808.397 119.359 813.172 131.696 809.907L133.474 776.711C133.474 776.711 121.473 781.11 108.516 776.916Z" fill="url(#paint42_linear_210_442)"/>
<path d="M107.746 773.732C107.746 772.622 113.658 771.723 120.95 771.723C128.242 771.723 134.154 772.622 134.154 773.732C134.154 774.842 128.242 775.741 120.95 775.741C113.658 775.741 107.746 774.842 107.746 773.732Z" fill="url(#paint43_linear_210_442)"/>
<path opacity="0.414121" d="M122.025 777.11C122.025 777.11 100.073 770.266 112.511 757.398C124.949 744.53 137.065 740.01 121.113 732.787C105.162 725.565 118.347 721.48 118.347 721.48C118.347 721.48 108.568 726.8 122.272 728.499C135.982 730.199 166.853 740.474 140.951 754.418C129.254 760.716 122.614 766.265 128.931 774.765C130.437 776.792 120.512 775.29 122.215 776.556C124.411 778.186 122.025 777.11 122.025 777.11Z" fill="url(#paint44_linear_210_442)"/>
<path d="M107.939 773.502C107.939 773.502 119.972 778.039 134.17 773.066C134.17 773.066 135.923 775.626 133.638 777.656C133.638 777.656 118.605 781.452 108.515 777.681C108.515 777.681 105.255 775.743 107.939 773.502Z" fill="url(#paint45_linear_210_442)"/>
<path d="M-323.82 789.275C-330.444 777.829 -353.473 787.981 -353.473 787.981L-335.467 922.897L532.83 803.305L513.703 672.789C511.811 668.765 505.387 674.115 505.387 674.115C503.754 671.196 501.215 671.124 499.837 671.345C499.539 671.441 499.217 671.523 498.869 671.587C498.869 671.587 499.246 671.439 499.837 671.345C505.529 669.495 502.417 662.035 502.417 662.035C497.42 659.978 492.061 668.002 492.061 668.002C495.642 659.023 488.017 652.704 488.017 652.704C481.721 654.962 484.433 667.595 484.433 667.595C481.812 663.239 478.421 668.284 478.421 668.284C473.157 661.072 467.401 667.137 467.401 667.137C467.409 659.378 458.411 659.587 458.411 659.587C454.971 664.208 459.388 670.315 459.388 670.315C448.832 671.05 453.881 679.547 454.967 681.197C462.956 683.275 455.155 681.474 455.155 681.474C455.155 681.474 455.084 681.376 454.967 681.197C454.77 681.146 454.563 681.092 454.346 681.036C448.951 679.64 445.859 682.242 444.247 684.55C444.002 685.513 443.528 686.502 442.755 687.5C442.755 687.5 443.171 686.091 444.247 684.55C445.742 678.66 438.635 673.744 438.635 673.744C432.167 674.611 431.969 686.743 431.969 686.743C432.193 673.883 415.038 672.044 415.038 672.044C410.341 677.319 413.209 685.049 415.784 689.803C416.927 690.887 417.856 692.277 418.46 694.046C418.46 694.046 417.164 692.353 415.784 689.803C409.194 683.557 395.465 687.461 395.465 687.461C396.441 694.236 400.802 697.523 404.344 699.095C405.753 699.21 407.351 699.635 409.159 700.483C409.159 700.483 406.978 700.263 404.344 699.095C396.784 698.479 394.657 706.811 394.657 706.811C376.547 699.783 383.202 718.503 376.345 714.609C369.488 710.716 364.646 720.575 364.646 720.575C364.646 720.575 370.174 724.453 363.752 721.282C357.33 718.111 350.222 727.038 350.222 727.038C345.356 721.415 339.58 726.16 339.58 726.16C337.863 729.883 342.72 738.66 342.72 738.66C331.677 739.45 335.586 753.079 335.586 753.079C322.908 748.25 322.07 763.628 322.07 763.628C310.769 753.784 304.306 764.227 304.306 764.227C304.306 764.227 299.807 757.563 293.979 760.625C288.155 763.685 291.287 771.215 291.287 771.215C285.168 767.777 281.206 777.297 281.206 777.297C271.82 774.338 270.739 784.025 270.739 784.025C262.263 782.388 261.955 788.745 261.955 788.745C261.493 779.113 250.77 779.688 250.77 779.688C248.686 786.576 252.224 791.279 252.224 791.279C245.85 786.824 244.909 793.481 244.909 793.481C238.313 792.264 239.279 798.672 239.57 800.089C239.597 800.193 239.617 800.285 239.631 800.362C239.631 800.362 239.605 800.263 239.57 800.089C238.792 797.078 232.616 783.204 227.808 785.824C223.059 788.411 226.492 802.487 226.815 803.766C226.823 803.797 226.831 803.828 226.839 803.859C226.839 803.859 226.831 803.827 226.815 803.766C224.839 796.176 216.447 797.721 216.447 797.721C214.955 805.004 219.533 806.236 219.533 806.236C219.533 806.236 212.335 812.362 198.029 810.472C183.723 808.579 186.375 819.349 186.375 819.349C179.045 818.61 177.409 827.984 177.409 827.984C167.611 822.586 166.333 833.823 166.333 833.823C157.875 829.305 156.918 836.718 156.918 836.718C152.451 836.342 148.707 839.25 148.707 839.25C142.445 836.275 133.35 840.063 133.35 840.063C128.858 834.508 120.303 838.276 120.303 838.276C111.521 837.267 115.607 846.503 108.655 845.676C101.704 844.849 93.0274 851.423 85.0253 849.718C77.0232 848.013 66.9361 857.155 62.488 855.145C58.0399 853.135 51.8736 856.278 51.8736 856.278C52.7658 850.51 48.5875 847.962 48.5875 847.962C40.8623 847.878 42.2844 857.515 42.2844 857.515L40.0659 855.47C35.9728 850.174 28.6024 852.452 28.6024 852.452C26.9771 858.389 33.0963 858.428 33.0963 858.428C33.0963 858.428 29.1256 859.399 25.2671 860.184C21.4086 860.969 15.4766 860.76 13.8341 860.657C12.1907 860.55 2.88797 861.492 -0.106703 860.89C-3.10184 860.284 -10.6375 867.288 -15.9308 863.818C-21.2249 860.345 -31.1559 864.398 -37.8603 863.3C-44.5638 862.206 -46.0337 865.883 -57.5944 869.78C-69.1549 873.68 -76.4346 864.575 -91.4289 872.999C-105.44 880.868 -92.3164 870.727 -114.86 873.761C-123.084 874.867 -124.341 877.271 -124.341 877.271C-130.268 869.881 -139.739 875.241 -139.739 875.241C-143.827 870.607 -148.011 871.526 -150.46 872.756C-151.01 873.315 -151.72 873.806 -152.623 874.198C-152.623 874.198 -151.802 873.43 -150.46 872.756C-146.384 868.615 -151.063 860.696 -151.063 860.696C-159.442 857.762 -165.547 869.022 -165.547 869.022L-172.963 870.801C-182.368 865.77 -182.591 873.293 -182.591 873.293C-190.583 867.366 -196.896 872.809 -196.896 872.809C-205.558 862.727 -213.688 870.441 -213.688 870.441C-212.407 865.663 -213.211 864.453 -213.211 864.453C-216.447 849.923 -227.916 858.958 -227.916 858.958C-228.22 853.528 -233.352 854.496 -233.352 854.496C-226.586 844.004 -237.285 833.247 -237.285 833.247C-245.385 833.507 -243.9 846.388 -243.797 847.214C-244.735 840.002 -249.277 841.195 -249.277 841.195C-239.573 834.094 -245.611 820.984 -245.611 820.984C-255.536 817.26 -261.708 831.952 -261.708 831.952C-255.476 815.716 -269.573 808.718 -269.573 808.718C-278.718 810.792 -277.074 822.865 -276.722 824.934C-276.703 825.034 -276.685 825.134 -276.667 825.236C-276.667 825.236 -276.689 825.13 -276.722 824.934C-279.417 810.628 -291.309 814.709 -291.309 814.709C-285.445 803.298 -297.14 793.61 -297.14 793.61C-301.431 791.809 -306.173 799.369 -306.173 799.369C-312.741 785.206 -323.82 789.275 -323.82 789.275Z" fill="url(#paint46_linear_210_442)"/>
<path d="M-25.9544 682.678C-31.059 669.708 -56.6536 676.669 -56.6536 676.669L-59.0877 820.102L864.604 831.902L865.179 692.878C863.839 688.388 856.303 692.954 856.303 692.954C855.06 689.655 852.425 689.182 850.955 689.195C850.629 689.249 850.281 689.283 849.908 689.295C849.908 689.295 850.324 689.2 850.955 689.195C857.178 688.161 855.107 679.898 855.107 679.898C850.222 676.969 843.376 684.489 843.376 684.489C848.519 675.695 841.566 667.911 841.566 667.911C834.649 669.275 835.491 682.867 835.491 682.867C833.444 677.916 829.117 682.64 829.117 682.64C824.764 674.296 817.813 679.713 817.813 679.713C819.04 671.628 809.63 670.432 809.63 670.432C805.318 674.707 808.963 681.766 808.963 681.766C797.845 680.874 801.773 690.521 802.645 692.412C810.644 695.833 802.798 692.731 802.798 692.731C802.798 692.731 802.739 692.617 802.645 692.412C802.447 692.328 802.24 692.24 802.023 692.147C796.621 689.844 792.989 692.07 790.946 694.221C790.54 695.187 789.89 696.143 788.927 697.062C788.927 697.062 789.583 695.658 790.946 694.221C793.43 688.319 786.796 682.079 786.796 682.079C779.919 681.966 777.806 694.579 777.806 694.579C780.06 681.212 762.471 676.599 762.471 676.599C756.748 681.358 758.522 689.866 760.458 695.224C761.479 696.534 762.228 698.128 762.58 700.066C762.58 700.066 761.496 698.098 760.458 695.224C754.572 687.679 739.65 689.59 739.65 689.59C739.603 696.805 743.632 700.916 747.076 703.11C748.526 703.451 750.125 704.146 751.876 705.314C751.876 705.314 749.637 704.742 747.076 703.11C739.294 701.28 735.768 709.63 735.768 709.63C717.999 699.459 721.993 720.014 715.459 714.879C708.925 709.745 702.329 719.258 702.329 719.258C702.329 719.258 707.481 724.168 701.287 719.854C695.092 715.54 686.282 723.727 686.282 723.727C682.095 717.103 675.329 721.14 675.329 721.14C672.955 724.75 676.638 734.66 676.638 734.66C665.005 733.748 666.937 748.566 666.937 748.566C654.484 741.541 651.194 757.436 651.194 757.436C640.963 745.401 632.587 755.27 632.587 755.27C632.587 755.27 628.945 747.618 622.39 749.892C615.84 752.167 617.921 760.506 617.921 760.506C612.084 755.962 606.459 765.261 606.459 765.261C597.143 760.701 594.494 770.628 594.494 770.628C585.918 767.59 584.598 774.166 584.598 774.166C585.63 764.055 574.365 762.97 574.365 762.97C571.111 769.821 574.059 775.278 574.059 775.278C568.116 769.633 566.09 776.423 566.09 776.423C559.407 774.119 559.407 780.948 559.487 782.471C559.498 782.584 559.505 782.683 559.507 782.765C559.507 782.765 559.496 782.658 559.487 782.471C559.149 779.211 554.893 763.782 549.47 765.757C544.115 767.707 545.481 782.916 545.617 784.299C545.62 784.332 545.623 784.366 545.627 784.4C545.627 784.4 545.623 784.365 545.617 784.299C544.75 776.078 535.761 776.37 535.761 776.37C533.062 783.726 537.639 785.729 537.639 785.729C537.639 785.729 529.175 790.982 514.563 786.765C499.951 782.544 501.023 794.184 501.023 794.184C493.5 792.262 490.323 801.775 490.323 801.775C480.959 794.609 477.862 806.12 477.862 806.12C469.758 800.082 467.595 807.657 467.595 807.657C462.999 806.564 458.64 809.006 458.64 809.006C452.582 804.921 442.508 807.441 442.508 807.441C438.7 800.945 429.192 803.528 429.192 803.528C420.198 801.097 423.005 811.363 415.891 809.409C408.776 807.456 398.701 812.943 390.629 809.909C382.558 806.875 370.609 814.818 366.289 812.024C361.969 809.23 355.049 811.537 355.049 811.537C356.885 805.666 352.931 802.354 352.931 802.354C344.894 801.053 344.861 811.319 344.861 811.319L342.871 808.839C339.437 802.676 331.398 803.893 331.398 803.893C328.772 809.825 335.143 810.826 335.143 810.826C335.143 810.826 330.852 811.214 326.707 811.426C322.563 811.638 316.414 810.489 314.718 810.123C313.022 809.753 303.179 809.274 300.153 808.175C297.127 807.073 288.173 813.188 283.202 808.741C278.23 804.289 267.244 806.953 260.429 804.755C253.615 802.561 251.505 806.163 238.845 808.407C226.184 810.655 220.029 800.022 203.078 806.446C187.241 812.445 202.51 803.939 178.539 803.558C169.796 803.419 168.107 805.726 168.107 805.726C163.092 797.093 152.38 801.191 152.38 801.191C148.847 795.72 144.343 796.02 141.597 796.917C140.936 797.413 140.119 797.813 139.116 798.08C139.116 798.08 140.093 797.409 141.597 796.917C146.496 793.242 142.864 784.253 142.864 784.253C134.593 779.88 126.46 790.655 126.46 790.655L118.453 791.344C109.441 784.623 108.027 792.428 108.027 792.428C100.63 784.995 93.195 789.675 93.195 789.675C85.7524 777.808 76.0678 784.57 76.0678 784.57C78.1533 779.791 77.5056 778.404 77.5056 778.404C76.4164 762.754 63.0441 770.367 63.0441 770.367C63.5807 764.66 58.0801 764.863 58.0801 764.863C66.7797 754.992 57.3194 742.1 57.3194 742.1C48.8372 741.098 48.3609 754.756 48.3391 755.632C48.4945 747.969 43.574 748.499 43.574 748.499C54.8022 742.623 50.5695 728.011 50.5695 728.011C40.8113 722.572 32.0707 736.913 32.0707 736.913C41.1171 720.971 27.5245 711.463 27.5245 711.463C17.6687 712.188 17.4848 725.028 17.5265 727.24C17.5304 727.347 17.5337 727.455 17.5364 727.563C17.5364 727.563 17.5304 727.449 17.5265 727.24C16.9659 711.907 3.93118 714.291 3.93118 714.291C11.8355 703.321 1.17028 691.387 1.17028 691.387C-3.01909 688.836 -9.14935 695.969 -9.14935 695.969C-13.7685 680.177 -25.9544 682.678 -25.9544 682.678Z" fill="#110C24"/>
<path fill-rule="evenodd" clip-rule="evenodd" d="M272.598 613.724C261.764 625.19 268.001 635.566 272.474 639.32C275.14 635.925 276.366 636.192 278.286 632.988C279.779 628.241 277.001 621.94 272.598 613.724ZM271.816 621.389C270.023 627.361 268.736 633.955 272.474 639.32L271.816 621.389Z" fill="url(#paint47_linear_210_442)"/>
<path d="M272.474 639.32L271.816 621.389C270.023 627.361 268.736 633.955 272.474 639.32Z" fill="url(#paint48_linear_210_442)"/>
<path fill-rule="evenodd" clip-rule="evenodd" d="M288.953 626.919C287.011 642.574 277.854 640.253 272.111 639.195C275.368 635.823 275.468 632.982 276.856 630.843C279.565 626.67 279.814 628.756 288.953 626.919ZM283.683 631.542C280.22 636.727 278.628 638.661 272.111 639.195L283.683 631.542Z" fill="url(#paint49_linear_210_442)"/>
<path d="M272.111 639.195L283.683 631.542C280.22 636.727 278.628 638.661 272.111 639.195Z" fill="url(#paint50_linear_210_442)"/>
<ellipse cx="272.354" cy="638.729" rx="0.691294" ry="6.20833" transform="rotate(-58.8472 272.354 638.729)" fill="url(#paint51_linear_210_442)"/>
<path d="M267.705 635.889L267.703 635.896L267.71 635.883L267.705 635.889ZM265.734 633.553C265.747 633.572 265.773 633.576 265.792 633.562C265.811 633.549 265.815 633.523 265.801 633.504C265.788 633.485 265.762 633.481 265.743 633.495C265.724 633.508 265.72 633.535 265.734 633.553ZM264.845 633.872C264.859 633.891 264.885 633.895 264.903 633.881C264.922 633.868 264.926 633.842 264.913 633.823C264.899 633.805 264.873 633.8 264.854 633.814C264.836 633.828 264.832 633.854 264.845 633.872ZM266.017 635.077L266.013 635.083V635.083L266.017 635.077ZM267.705 635.889C267.708 635.881 267.708 635.881 267.708 635.881C267.708 635.881 267.708 635.881 267.708 635.881C267.708 635.881 267.708 635.881 267.708 635.881C267.708 635.881 267.707 635.881 267.707 635.881C267.707 635.881 267.706 635.881 267.705 635.88C267.703 635.88 267.699 635.878 267.695 635.877C267.687 635.874 267.675 635.87 267.659 635.865C267.628 635.854 267.583 635.837 267.526 635.817C267.414 635.775 267.258 635.715 267.083 635.641C266.734 635.493 266.313 635.291 266.022 635.071L266.017 635.077L266.013 635.083C266.305 635.304 266.728 635.508 267.077 635.655C267.252 635.729 267.408 635.79 267.521 635.831C267.577 635.852 267.623 635.868 267.654 635.879C267.67 635.885 267.682 635.889 267.69 635.892C267.694 635.893 267.698 635.894 267.7 635.895C267.701 635.895 267.702 635.896 267.702 635.896C267.702 635.896 267.703 635.896 267.703 635.896C267.703 635.896 267.703 635.896 267.703 635.896C267.703 635.896 267.703 635.896 267.703 635.896C267.703 635.896 267.703 635.896 267.705 635.889ZM266.017 635.077L266.022 635.071C265.762 634.874 265.477 634.568 265.258 634.31C265.149 634.181 265.055 634.064 264.989 633.98C264.957 633.937 264.93 633.903 264.913 633.88C264.904 633.868 264.897 633.859 264.892 633.852C264.89 633.849 264.888 633.847 264.887 633.845C264.886 633.845 264.886 633.844 264.886 633.844C264.885 633.843 264.885 633.843 264.885 633.843C264.885 633.843 264.885 633.843 264.885 633.843C264.885 633.843 264.885 633.843 264.885 633.843C264.885 633.843 264.885 633.843 264.879 633.848C264.873 633.852 264.873 633.852 264.873 633.852C264.873 633.852 264.873 633.852 264.873 633.852C264.873 633.852 264.873 633.852 264.873 633.852C264.873 633.853 264.873 633.853 264.873 633.853C264.873 633.853 264.874 633.854 264.874 633.855C264.876 633.856 264.877 633.859 264.88 633.862C264.884 633.868 264.891 633.877 264.9 633.889C264.918 633.913 264.944 633.947 264.977 633.989C265.043 634.074 265.137 634.19 265.246 634.32C265.466 634.578 265.751 634.886 266.013 635.083L266.017 635.077ZM267.705 635.889L267.71 635.883C267.454 635.677 267.058 635.223 266.682 634.752C266.306 634.281 265.95 633.795 265.774 633.524L265.768 633.529L265.761 633.533C265.938 633.804 266.294 634.291 266.67 634.762C267.046 635.232 267.442 635.688 267.701 635.895L267.705 635.889Z" fill="#D46588"/>
<path d="M61.2904 647.575C61.3781 647.212 61.7436 646.989 62.1066 647.077C62.4697 647.165 62.6925 647.53 62.6048 647.893C62.517 648.256 62.152 648.479 61.789 648.391C61.4259 648.304 61.2026 647.939 61.2904 647.575Z" fill="#FCCA91"/>
<path opacity="0.0391503" d="M59.1849 646.894C59.5595 645.343 61.1204 644.39 62.6707 644.764C64.2214 645.139 65.1743 646.7 64.7997 648.25C64.4249 649.801 62.8646 650.755 61.3139 650.38C59.7636 650.006 58.8102 648.445 59.1849 646.894Z" fill="#F8AC54"/>
<path opacity="0.0329471" d="M56.8982 646.527C57.5736 643.731 60.3865 642.012 63.1814 642.687C65.9763 643.363 67.6942 646.176 67.0188 648.972C66.3435 651.767 63.5306 653.486 60.7357 652.811C57.9408 652.135 56.2229 649.322 56.8982 646.527Z" fill="#F8AC54"/>
<g filter="url(#filter5_f_210_442)">
<path d="M61.0483 647.517C61.1684 647.02 61.668 646.714 62.1648 646.834C62.6612 646.954 62.9664 647.454 62.8463 647.951C62.7264 648.447 62.2267 648.753 61.7302 648.633C61.2334 648.513 60.9284 648.013 61.0483 647.517Z" fill="#F8AC54"/>
</g>
<path d="M298.58 714.225C298.713 713.676 299.265 713.338 299.815 713.471C300.359 713.602 300.696 714.155 300.563 714.704C300.431 715.253 299.879 715.59 299.335 715.458C298.784 715.326 298.447 714.774 298.58 714.225Z" fill="#FCCA91"/>
<path opacity="0.0391503" d="M295.392 713.191C295.959 710.846 298.318 709.404 300.663 709.971C303.007 710.537 304.448 712.897 303.881 715.242C303.315 717.587 300.956 719.028 298.611 718.462C296.267 717.895 294.826 715.536 295.392 713.191Z" fill="#F8AC54"/>
<path opacity="0.0329471" d="M291.936 712.637C292.957 708.411 297.213 705.813 301.435 706.833C305.663 707.854 308.258 712.107 307.237 716.334C306.216 720.56 301.965 723.159 297.738 722.138C293.515 721.118 290.915 716.863 291.936 712.637Z" fill="#F8AC54"/>
<g filter="url(#filter6_f_210_442)">
<path d="M298.211 714.133C298.392 713.382 299.145 712.92 299.9 713.102C300.65 713.283 301.109 714.038 300.927 714.79C300.746 715.54 299.993 716.002 299.243 715.821C298.488 715.639 298.029 714.884 298.211 714.133Z" fill="#F8AC54"/>
</g>
<path d="M374.247 676.927C374.335 676.564 374.7 676.341 375.064 676.428C375.424 676.515 375.651 676.881 375.563 677.244C375.475 677.608 375.107 677.83 374.746 677.743C374.383 677.655 374.16 677.29 374.247 676.927Z" fill="#FCCA91"/>
<path opacity="0.0391503" d="M372.142 676.242C372.517 674.691 374.077 673.737 375.628 674.112C377.178 674.486 378.131 676.047 377.757 677.598C377.382 679.149 375.822 680.102 374.271 679.728C372.72 679.353 371.767 677.792 372.142 676.242Z" fill="#F8AC54"/>
<path opacity="0.0329471" d="M369.855 675.878C370.531 673.083 373.345 671.364 376.138 672.039C378.934 672.714 380.65 675.528 379.975 678.323C379.3 681.118 376.489 682.837 373.692 682.162C370.9 681.487 369.18 678.673 369.855 675.878Z" fill="#F8AC54"/>
<g filter="url(#filter7_f_210_442)">
<path d="M374.005 676.868C374.125 676.372 374.627 676.066 375.123 676.186C375.619 676.306 375.922 676.806 375.802 677.302C375.682 677.799 375.184 678.105 374.688 677.985C374.192 677.865 373.885 677.365 374.005 676.868Z" fill="#F8AC54"/>
</g>
<path d="M220.204 758.365C220.292 758.001 220.657 757.778 221.021 757.866C221.385 757.954 221.608 758.319 221.52 758.682C221.432 759.046 221.067 759.269 220.703 759.181C220.34 759.093 220.117 758.728 220.204 758.365Z" fill="#FCCA91"/>
<path opacity="0.0391503" d="M218.099 757.683C218.474 756.132 220.034 755.179 221.585 755.553C223.132 755.927 224.088 757.489 223.714 759.039C223.339 760.591 221.775 761.543 220.228 761.169C218.677 760.795 217.724 759.234 218.099 757.683Z" fill="#F8AC54"/>
<path opacity="0.0329471" d="M215.808 757.315C216.484 754.52 219.298 752.802 222.095 753.477C224.888 754.152 226.607 756.966 225.932 759.761C225.257 762.556 222.442 764.275 219.649 763.6C216.853 762.924 215.133 760.11 215.808 757.315Z" fill="#F8AC54"/>
<g filter="url(#filter8_f_210_442)">
<path d="M219.958 758.306C220.079 757.809 220.58 757.504 221.076 757.624C221.572 757.744 221.879 758.244 221.759 758.741C221.639 759.237 221.138 759.542 220.641 759.422C220.145 759.303 219.839 758.802 219.958 758.306Z" fill="#F8AC54"/>
</g>
<path d="M13.5444 702.224C13.6321 701.86 13.9975 701.638 14.3605 701.725C14.7236 701.813 14.9469 702.178 14.8591 702.541C14.7714 702.904 14.4059 703.128 14.0429 703.04C13.6798 702.952 13.4566 702.587 13.5444 702.224Z" fill="#FCCA91"/>
<path opacity="0.0391503" d="M11.4427 701.542C11.8174 699.991 13.3778 699.038 14.9285 699.413C16.4788 699.787 17.4322 701.348 17.0575 702.899C16.6828 704.45 15.1223 705.402 13.572 705.027C12.0213 704.653 11.0681 703.093 11.4427 701.542Z" fill="#F8AC54"/>
<path opacity="0.0329471" d="M9.15219 701.175C9.82748 698.38 12.6407 696.661 15.4356 697.336C18.2302 698.011 19.9484 700.825 19.2732 703.62C18.5977 706.416 15.7849 708.132 12.9904 707.457C10.1955 706.782 8.47672 703.971 9.15219 701.175Z" fill="#F8AC54"/>
<g filter="url(#filter9_f_210_442)">
<path d="M13.3023 702.165C13.4222 701.668 13.9223 701.363 14.4187 701.483C14.9155 701.603 15.2206 702.103 15.1006 702.599C14.9805 703.096 14.4809 703.402 13.9841 703.282C13.4877 703.162 13.1822 702.662 13.3023 702.165Z" fill="#F8AC54"/>
</g>
<path d="M55.6459 764.829C55.7337 764.466 56.099 764.243 56.4621 764.331C56.8251 764.418 57.0484 764.784 56.9607 765.147C56.873 765.51 56.5075 765.733 56.1445 765.645C55.7814 765.558 55.5582 765.192 55.6459 764.829Z" fill="#FCCA91"/>
<path opacity="0.0391503" d="M53.5443 764.148C53.919 762.597 55.4794 761.643 57.03 762.018C58.5803 762.393 59.5337 763.953 59.159 765.504C58.7844 767.055 57.2239 768.007 55.6736 767.633C54.1229 767.258 53.1696 765.698 53.5443 764.148Z" fill="#F8AC54"/>
<path opacity="0.0329471" d="M51.2538 763.78C51.929 760.985 54.7423 759.266 57.5372 759.941C60.3317 760.617 62.05 763.43 61.3747 766.225C60.6992 769.021 57.8865 770.738 55.092 770.063C52.2971 769.387 50.5783 766.576 51.2538 763.78Z" fill="#F8AC54"/>
<g filter="url(#filter10_f_210_442)">
<path d="M55.4038 764.77C55.5238 764.274 56.0238 763.968 56.5203 764.088C57.0171 764.208 57.3221 764.708 57.2022 765.205C57.0821 765.702 56.5825 766.007 56.0857 765.887C55.5892 765.767 55.2838 765.267 55.4038 764.77Z" fill="#F8AC54"/>
</g>
<path d="M28.6597 592.814C28.8304 592.108 29.5383 591.673 30.2475 591.844C30.953 592.015 31.3879 592.726 31.2172 593.432C31.0466 594.138 30.3353 594.572 29.6298 594.401C28.9206 594.23 28.4891 593.521 28.6597 592.814Z" fill="#FCCA91"/>
<path opacity="0.0391503" d="M24.567 591.486C25.2959 588.469 28.3303 586.614 31.3472 587.343C34.3604 588.071 36.2168 591.107 35.488 594.124C34.7592 597.141 31.7214 598.994 28.7083 598.266C25.6914 597.537 23.8383 594.502 24.567 591.486Z" fill="#F8AC54"/>
<path opacity="0.0329471" d="M20.1135 590.775C21.4273 585.338 26.898 581.994 32.3364 583.308C37.7712 584.621 41.1158 590.094 39.802 595.532C38.4883 600.97 33.0141 604.311 27.5794 602.998C22.141 601.684 18.7998 596.213 20.1135 590.775Z" fill="#F8AC54"/>
<g filter="url(#filter11_f_210_442)">
<path d="M28.1867 592.703C28.4202 591.736 29.3921 591.142 30.3585 591.376C31.3249 591.609 31.9184 592.582 31.6849 593.548C31.4517 594.513 30.4798 595.107 29.5134 594.874C28.547 594.64 27.9534 593.668 28.1867 592.703Z" fill="#F8AC54"/>
</g>
<path d="M215.973 588.024C216.02 587.532 216.455 587.171 216.949 587.218C217.44 587.266 217.801 587.703 217.754 588.195C217.707 588.687 217.269 589.046 216.778 588.999C216.284 588.952 215.926 588.515 215.973 588.024Z" fill="#FCCA91"/>
<path opacity="0.0391503" d="M213.091 587.519C213.293 585.418 215.159 583.878 217.26 584.08C219.358 584.282 220.899 586.149 220.697 588.25C220.495 590.35 218.627 591.889 216.529 591.687C214.428 591.485 212.89 589.62 213.091 587.519Z" fill="#F8AC54"/>
<path opacity="0.0329471" d="M210.025 587.466C210.389 583.679 213.752 580.904 217.539 581.268C221.324 581.632 224.1 584.997 223.736 588.784C223.372 592.57 220.006 595.344 216.222 594.981C212.434 594.617 209.661 591.253 210.025 587.466Z" fill="#F8AC54"/>
<g filter="url(#filter12_f_210_442)">
<path d="M215.645 587.992C215.709 587.319 216.307 586.826 216.98 586.89C217.653 586.955 218.146 587.553 218.081 588.226C218.016 588.898 217.419 589.391 216.746 589.326C216.073 589.262 215.58 588.664 215.645 587.992Z" fill="#F8AC54"/>
</g>
<path d="M-93.8726 589.918L-45.1328 270.523C-45.1328 270.523 -108.99 -3.79135 -109.124 -39.9966C-109.258 -76.2017 -61.6584 -44.9634 -61.6584 -44.9634C-61.6584 -44.9634 -32.8525 188.548 -20.9067 206.076C-20.9067 206.076 26.963 -33.7472 44.9017 -63.0572C62.8403 -92.3673 160.808 -56.874 160.808 -56.874C160.808 -56.874 87.747 104.338 87.9789 117.118C88.2107 129.898 28.358 325.705 28.5592 336.797C28.7605 347.89 121.601 330.712 132.282 315.992C142.962 301.27 209.893 231.947 214.989 231.854C218.248 231.795 229.972 229.162 238.894 236.188C241.5 238.239 251.358 234.201 253.253 238.678C255.016 242.844 257.393 247.554 257.393 247.554C257.393 247.554 139.555 358.351 105.367 363.68C71.1793 369.009 29.3888 373.602 29.8292 410.413C30.2705 447.224 -26.3943 647.308 -26.3943 647.308L-90.7455 590.196L-93.8726 589.918Z" fill="url(#paint52_linear_210_442)" fill-opacity="0.42"/>
<path opacity="0.04" d="M131.859 122.654C131.859 7.54929 225.15 -85.7617 340.23 -85.7617C455.312 -85.7617 548.603 7.54929 548.603 122.654C548.603 237.759 455.312 331.07 340.23 331.07C225.15 331.07 131.859 237.759 131.859 122.654Z" fill="#979499"/>
<path opacity="0.04" d="M193.129 122.655C193.129 41.3942 258.99 -24.4805 340.232 -24.4805C421.477 -24.4805 487.337 41.3942 487.337 122.655C487.337 203.916 421.477 269.791 340.232 269.791C258.99 269.791 193.129 203.916 193.129 122.655Z" fill="#979499"/>
<path opacity="0.03" d="M242.008 125.932C242.008 71.673 285.985 27.6875 340.231 27.6875C394.479 27.6875 438.454 71.673 438.454 125.932C438.454 180.191 394.479 224.176 340.231 224.176C285.985 224.176 242.008 180.191 242.008 125.932Z" fill="#979499"/>
<path opacity="0.780606" d="M291.055 122.658C291.055 95.4915 313.071 73.4688 340.232 73.4688C367.394 73.4688 389.41 95.4915 389.41 122.658C389.41 149.824 367.394 171.847 340.232 171.847C313.071 171.847 291.055 149.824 291.055 122.658Z" fill="url(#paint53_linear_210_442)"/>
<path fill-rule="evenodd" clip-rule="evenodd" d="M361.143 787.966C359.019 788.337 354.643 788.628 346.175 786.703C335.276 784.221 328.526 772.69 328.526 772.69C329.849 773.412 336.987 779.26 346.363 779.385C350.929 779.443 354.553 781.326 357.495 783.303C355.768 780.994 354.201 778.757 352.789 776.61C346.765 777.468 341.607 774.986 330.966 769.136C320.127 763.173 318.852 754.048 318.852 754.048C318.852 754.048 328.436 763.832 338.589 765.445C343.261 766.187 346.647 768.577 349.285 770.993C348.641 769.9 348.039 768.84 347.482 767.826C346.729 766.46 346.041 765.14 345.402 763.866C338.606 762.278 333.874 758.601 325.933 746.936C317.794 734.972 320.613 729.043 320.613 729.043C320.613 729.043 322.088 736.547 330.132 743.787C335.065 748.223 340.198 754.957 343.257 759.366C341.505 755.544 340.028 751.603 338.836 747.571C334.058 740.85 329.053 729.718 328.595 723.19C328.088 716.018 328.171 710.299 328.171 710.299C334.891 716.815 336.922 726.608 337.403 729.353C335.449 715.823 342.571 703.376 342.571 703.376C341.564 708.613 349.352 721.885 346.07 731.219C343.84 737.548 341.826 743.781 340.917 747.011C341.773 749.982 343.973 756.622 348.481 765.145C347.958 762.745 347.176 759.702 345.443 751.458C342.979 739.709 350.993 728.833 350.993 728.833C348.523 736.484 351.968 746.523 352.463 755.528C352.668 760.129 352.062 764.732 350.678 769.122C352.075 771.53 353.689 774.137 355.55 776.881C354.556 770.905 353.663 761.382 355.888 754.985C357.472 750.423 357.597 741.596 357.597 741.596C357.597 741.596 364.36 746.84 362.46 758.642C360.746 769.29 359.948 774.217 357.8 780.091C359.705 782.734 361.833 785.482 364.199 788.291C362.183 783.611 360.458 777.181 363.316 771.518C368.429 761.383 365.799 755.522 365.799 755.522C365.799 755.522 371.276 757.613 371.208 775.99C371.168 786.515 369.919 791.334 368.803 793.486C370.509 795.328 372.326 797.179 374.247 799.041C372.65 794.282 370.803 785.264 374.702 777.597C376.741 773.585 378.673 767.574 378.673 767.574C378.673 767.574 381.826 779.032 380.684 789.445C379.681 798.614 378.329 800.571 376.878 801.52L388.308 810.938C388.783 811.295 388.879 811.969 388.521 812.443C388.163 812.917 387.488 813.012 387.013 812.655C383.45 809.96 380.01 807.227 376.939 804.477C375.475 805.999 373.475 806.887 371.368 806.953C367.061 807.094 365.277 803.935 363.548 804.628C363.548 804.628 366.049 801.171 368.618 801.882C371.188 802.593 372.035 803.576 374.262 803.417C374.668 803.353 375.068 803.259 375.462 803.134C373.578 801.399 371.782 799.667 370.083 797.934C366.751 799.608 360.859 800.571 351.801 800.709C341.788 800.867 333.754 788.398 333.754 788.398C333.754 788.398 338.008 792.525 351.976 792.961C360.133 793.217 365.366 794.885 368.189 795.967L361.143 787.966Z" fill="url(#paint54_linear_210_442)"/>
<path fill-rule="evenodd" clip-rule="evenodd" d="M-11.0384 557.935C-10.1613 557.007 -11.0371 553.768 -9.57158 544.421C-7.54604 543.01 -0.394647 537.867 4.19597 533.014C8.08282 528.904 10.4929 524.646 8.28151 522.552C5.79919 520.203 1.00087 523.754 -2.38576 527.38C-4.39911 529.515 -6.08621 531.935 -7.3926 534.562C-6.87814 532.255 -4.46705 522.037 -3.51266 519.757C-1.41569 519.609 5.73458 519.518 9.9279 518.769C14.7752 517.903 21.5306 515.946 23.8628 513.48C25.13 512.141 25.1565 510.499 23.2151 508.662C18.8067 504.489 3.30943 512.121 2.71767 512.54C2.70173 512.552 -1.15936 515.453 -1.18298 515.405C1.17485 510.911 3.07231 507.75 6.15347 503.871C8.64382 504.066 27.1921 505.024 30.8683 501.037C31.1827 500.692 31.3845 500.259 31.4465 499.796C31.5811 499.113 31.3261 498.413 30.7846 497.977C27.8827 495.231 16.1764 496.435 11.7887 497.284L17.7382 490.994C21.7352 491.355 25.7543 491.402 29.759 491.136C34.0245 490.788 40.2755 488.013 42.6836 485.397C43.7208 484.269 44.0836 483.2 43.2116 482.321C42.8562 481.991 42.4416 481.731 41.9901 481.554C36.9605 479.398 27.4376 484.017 23.7212 485.927C25.422 484.291 27.3409 482.898 29.4235 481.787C30.0933 481.446 37.2907 476.546 42.2986 471.323C46.1436 467.314 48.8637 462.644 46.9075 460.784C44.6845 458.671 39.8721 461.303 35.7167 465.69C31.1542 470.507 26.9769 477.457 24.8441 482.222C21.9482 485.084 20.3735 486.293 17.6879 489.158C17.6879 489.158 27.3777 473.891 23.2859 470.018C19.0637 466.022 11.1512 489.408 11.7384 495.448C9.74773 497.545 7.86682 499.744 6.10327 502.035C7.66199 496.729 11.5677 485.153 8.31174 482.071C7.00401 480.834 5.09549 481.694 4.04667 482.803C-0.827849 487.957 1.07958 508.606 1.07958 508.606C-0.521864 510.908 -1.98922 513.3 -3.31558 515.771C-3.31558 515.771 1.15915 497.7 -6.2388 496.746C-13.555 495.803 -10.0743 516.915 -6.18983 522.587C-6.51268 523.562 -9.64764 536.663 -10.8786 541.396C-10.8829 541.297 -11.2932 537.427 -11.2932 537.427C-11.2932 537.427 -12.7743 515.93 -20.3927 518.086C-27.0802 519.978 -20.143 541.568 -12.827 548.493C-13.8364 554.794 -13.2044 557.077 -13.2044 557.077C-13.0889 557.525 -12.8676 557.938 -12.5592 558.283C-12.1669 558.671 -11.7596 558.697 -11.0384 557.935Z" fill="url(#paint55_linear_210_442)"/>
</g>
<defs>
<filter id="filter0_f_210_442" x="306.669" y="649.805" width="77.8305" height="95.3305" filterUnits="userSpaceOnUse" color-interpolation-filters="sRGB">
<feFlood flood-opacity="0" result="BackgroundImageFix"/>
<feBlend mode="normal" in="SourceGraphic" in2="BackgroundImageFix" result="shape"/>
<feGaussianBlur stdDeviation="1.4" result="effect1_foregroundBlur_210_442"/>
</filter>
<filter id="filter1_f_210_442" x="-36.1633" y="641.024" width="82.3812" height="89.7094" filterUnits="userSpaceOnUse" color-interpolation-filters="sRGB">
<feFlood flood-opacity="0" result="BackgroundImageFix"/>
<feBlend mode="normal" in="SourceGraphic" in2="BackgroundImageFix" result="shape"/>
<feGaussianBlur stdDeviation="1.4" result="effect1_foregroundBlur_210_442"/>
</filter>
<filter id="filter2_f_210_442" x="-626.564" y="693.334" width="1578.18" height="208.015" filterUnits="userSpaceOnUse" color-interpolation-filters="sRGB">
<feFlood flood-opacity="0" result="BackgroundImageFix"/>
<feBlend mode="normal" in="SourceGraphic" in2="BackgroundImageFix" result="shape"/>
<feGaussianBlur stdDeviation="2.7" result="effect1_foregroundBlur_210_442"/>
</filter>
<filter id="filter3_f_210_442" x="195.582" y="661.519" width="58.6729" height="81.0947" filterUnits="userSpaceOnUse" color-interpolation-filters="sRGB">
<feFlood flood-opacity="0" result="BackgroundImageFix"/>
<feBlend mode="normal" in="SourceGraphic" in2="BackgroundImageFix" result="shape"/>
<feGaussianBlur stdDeviation="0.369388" result="effect1_foregroundBlur_210_442"/>
</filter>
<filter id="filter4_f_210_442" x="19.2527" y="544.522" width="241.616" height="208.764" filterUnits="userSpaceOnUse" color-interpolation-filters="sRGB">
<feFlood flood-opacity="0" result="BackgroundImageFix"/>
<feBlend mode="normal" in="SourceGraphic" in2="BackgroundImageFix" result="shape"/>
<feGaussianBlur stdDeviation="9.56308" result="effect1_foregroundBlur_210_442"/>
</filter>
<filter id="filter5_f_210_442" x="56.0984" y="641.884" width="11.6977" height="11.7016" filterUnits="userSpaceOnUse" color-interpolation-filters="sRGB">
<feFlood flood-opacity="0" result="BackgroundImageFix"/>
<feBlend mode="normal" in="SourceGraphic" in2="BackgroundImageFix" result="shape"/>
<feGaussianBlur stdDeviation="2.46252" result="effect1_foregroundBlur_210_442"/>
</filter>
<filter id="filter6_f_210_442" x="293.247" y="708.137" width="12.6469" height="12.6469" filterUnits="userSpaceOnUse" color-interpolation-filters="sRGB">
<feFlood flood-opacity="0" result="BackgroundImageFix"/>
<feBlend mode="normal" in="SourceGraphic" in2="BackgroundImageFix" result="shape"/>
<feGaussianBlur stdDeviation="2.46252" result="effect1_foregroundBlur_210_442"/>
</filter>
<filter id="filter7_f_210_442" x="369.055" y="671.235" width="11.6977" height="11.7016" filterUnits="userSpaceOnUse" color-interpolation-filters="sRGB">
<feFlood flood-opacity="0" result="BackgroundImageFix"/>
<feBlend mode="normal" in="SourceGraphic" in2="BackgroundImageFix" result="shape"/>
<feGaussianBlur stdDeviation="2.46252" result="effect1_foregroundBlur_210_442"/>
</filter>
<filter id="filter8_f_210_442" x="215.009" y="752.673" width="11.7016" height="11.7016" filterUnits="userSpaceOnUse" color-interpolation-filters="sRGB">
<feFlood flood-opacity="0" result="BackgroundImageFix"/>
<feBlend mode="normal" in="SourceGraphic" in2="BackgroundImageFix" result="shape"/>
<feGaussianBlur stdDeviation="2.46252" result="effect1_foregroundBlur_210_442"/>
</filter>
<filter id="filter9_f_210_442" x="8.35231" y="696.532" width="11.6977" height="11.7016" filterUnits="userSpaceOnUse" color-interpolation-filters="sRGB">
<feFlood flood-opacity="0" result="BackgroundImageFix"/>
<feBlend mode="normal" in="SourceGraphic" in2="BackgroundImageFix" result="shape"/>
<feGaussianBlur stdDeviation="2.46252" result="effect1_foregroundBlur_210_442"/>
</filter>
<filter id="filter10_f_210_442" x="50.4539" y="759.137" width="11.6977" height="11.7016" filterUnits="userSpaceOnUse" color-interpolation-filters="sRGB">
<feFlood flood-opacity="0" result="BackgroundImageFix"/>
<feBlend mode="normal" in="SourceGraphic" in2="BackgroundImageFix" result="shape"/>
<feGaussianBlur stdDeviation="2.46252" result="effect1_foregroundBlur_210_442"/>
</filter>
<filter id="filter11_f_210_442" x="23.2117" y="586.399" width="13.4477" height="13.4516" filterUnits="userSpaceOnUse" color-interpolation-filters="sRGB">
<feFlood flood-opacity="0" result="BackgroundImageFix"/>
<feBlend mode="normal" in="SourceGraphic" in2="BackgroundImageFix" result="shape"/>
<feGaussianBlur stdDeviation="2.46252" result="effect1_foregroundBlur_210_442"/>
</filter>
<filter id="filter12_f_210_442" x="210.716" y="581.962" width="12.2954" height="12.2954" filterUnits="userSpaceOnUse" color-interpolation-filters="sRGB">
<feFlood flood-opacity="0" result="BackgroundImageFix"/>
<feBlend mode="normal" in="SourceGraphic" in2="BackgroundImageFix" result="shape"/>
<feGaussianBlur stdDeviation="2.46252" result="effect1_foregroundBlur_210_442"/>
</filter>
<linearGradient id="paint0_linear_210_442" x1="395.132" y1="601.759" x2="1362.1" y2="597.025" gradientUnits="userSpaceOnUse">
<stop stop-color="#2C185A"/>
<stop offset="1" stop-color="#5840A1"/>
</linearGradient>
<linearGradient id="paint1_linear_210_442" x1="-30.2967" y1="-4.05344" x2="40.7991" y2="118.009" gradientUnits="userSpaceOnUse">
<stop/>
<stop offset="1" stop-color="#6633CC"/>
</linearGradient>
<linearGradient id="paint2_linear_210_442" x1="31.6557" y1="-32.8512" x2="115.696" y2="184.161" gradientUnits="userSpaceOnUse">
<stop/>
<stop offset="0.60345" stop-color="#6633CC"/>
<stop offset="1" stop-color="#FF9CAA"/>
</linearGradient>
<radialGradient id="paint3_radial_210_442" cx="0" cy="0" r="1" gradientTransform="matrix(143.778 -108.511 108.498 143.796 230.108 80.471)" gradientUnits="userSpaceOnUse">
<stop stop-color="#FF9CAA"/>
<stop offset="0.396043" stop-color="#6633CC"/>
<stop offset="1"/>
</radialGradient>
<linearGradient id="paint4_linear_210_442" x1="137.004" y1="580.21" x2="115.949" y2="576.224" gradientUnits="userSpaceOnUse">
<stop stop-color="#DDA165"/>
<stop offset="1" stop-color="#BE5D28"/>
</linearGradient>
<linearGradient id="paint5_linear_210_442" x1="127.23" y1="573.846" x2="135.114" y2="585.04" gradientUnits="userSpaceOnUse">
<stop stop-opacity="0"/>
<stop offset="1" stop-color="#E40676"/>
</linearGradient>
<linearGradient id="paint6_linear_210_442" x1="122.158" y1="543.441" x2="115.258" y2="577.81" gradientUnits="userSpaceOnUse">
<stop stop-color="#D59861"/>
<stop offset="0.86" stop-color="#FEDCB9"/>
<stop offset="1" stop-color="#FEDCB9" stop-opacity="0"/>
</linearGradient>
<linearGradient id="paint7_linear_210_442" x1="120.611" y1="551.35" x2="129.864" y2="555.622" gradientUnits="userSpaceOnUse">
<stop stop-opacity="0"/>
<stop offset="1" stop-color="#E40676"/>
</linearGradient>
<linearGradient id="paint8_linear_210_442" x1="108.892" y1="588.029" x2="105.357" y2="645.02" gradientUnits="userSpaceOnUse">
<stop stop-color="#DDA165"/>
<stop offset="1" stop-color="#BE5D28"/>
</linearGradient>
<linearGradient id="paint9_linear_210_442" x1="110.976" y1="590.476" x2="142.063" y2="625.05" gradientUnits="userSpaceOnUse">
<stop stop-opacity="0"/>
<stop offset="1" stop-color="#E40676"/>
</linearGradient>
<linearGradient id="paint10_linear_210_442" x1="83.3562" y1="588.664" x2="61.7359" y2="560.042" gradientUnits="userSpaceOnUse">
<stop stop-color="#A06C4A"/>
<stop offset="1" stop-color="#BE5D28"/>
</linearGradient>
<linearGradient id="paint11_linear_210_442" x1="79.815" y1="572.616" x2="57.507" y2="580.317" gradientUnits="userSpaceOnUse">
<stop stop-opacity="0"/>
<stop offset="1" stop-color="#100030"/>
</linearGradient>
<linearGradient id="paint12_linear_210_442" x1="119.9" y1="590.114" x2="84.544" y2="608.878" gradientUnits="userSpaceOnUse">
<stop stop-color="#FBE2A7"/>
<stop offset="1" stop-color="#FBE2A7" stop-opacity="0"/>
</linearGradient>
<linearGradient id="paint13_linear_210_442" x1="65.2239" y1="566.304" x2="77.6745" y2="583.741" gradientUnits="userSpaceOnUse">
<stop stop-color="#FBE2A7"/>
<stop offset="1" stop-color="#FBE2A7" stop-opacity="0"/>
</linearGradient>
<linearGradient id="paint14_linear_210_442" x1="77.8141" y1="571.999" x2="61.7289" y2="578.973" gradientUnits="userSpaceOnUse">
<stop stop-opacity="0"/>
<stop offset="1" stop-color="#100030"/>
</linearGradient>
<linearGradient id="paint15_linear_210_442" x1="129.83" y1="613.19" x2="123.586" y2="636.463" gradientUnits="userSpaceOnUse">
<stop stop-color="#FBE2A7"/>
<stop offset="1" stop-color="#FBE2A7" stop-opacity="0"/>
</linearGradient>
<linearGradient id="paint16_linear_210_442" x1="112.945" y1="601.375" x2="87.9013" y2="596.634" gradientUnits="userSpaceOnUse">
<stop stop-color="#FCF9F6"/>
<stop offset="1" stop-color="#E5D5AF"/>
</linearGradient>
<linearGradient id="paint17_linear_210_442" x1="104.811" y1="597.295" x2="100.855" y2="608.353" gradientUnits="userSpaceOnUse">
<stop stop-color="#010101"/>
<stop offset="1" stop-color="#86644C"/>
</linearGradient>
<linearGradient id="paint18_linear_210_442" x1="76.1992" y1="537.525" x2="90.58" y2="581.369" gradientUnits="userSpaceOnUse">
<stop stop-color="#D59861"/>
<stop offset="0.86" stop-color="#FEDCB9"/>
<stop offset="1" stop-color="#FEDCB9" stop-opacity="0"/>
</linearGradient>
<linearGradient id="paint19_linear_210_442" x1="90.5757" y1="559.762" x2="68.5777" y2="562.807" gradientUnits="userSpaceOnUse">
<stop stop-opacity="0"/>
<stop offset="1" stop-color="#100030"/>
</linearGradient>
<linearGradient id="paint20_linear_210_442" x1="134.428" y1="594.026" x2="130.022" y2="616.777" gradientUnits="userSpaceOnUse">
<stop stop-color="#6D3B87" stop-opacity="0"/>
<stop offset="1" stop-color="#744998" stop-opacity="0.38"/>
</linearGradient>
<linearGradient id="paint21_linear_210_442" x1="109.709" y1="592.525" x2="104.634" y2="618.734" gradientUnits="userSpaceOnUse">
<stop stop-color="#6D3B87" stop-opacity="0"/>
<stop offset="1" stop-color="#744998" stop-opacity="0.38"/>
</linearGradient>
<linearGradient id="paint22_linear_210_442" x1="149.153" y1="705.596" x2="168.872" y2="732.947" gradientUnits="userSpaceOnUse">
<stop stop-color="#DEA163"/>
<stop offset="1" stop-color="#CC7A3C"/>
</linearGradient>
<linearGradient id="paint23_linear_210_442" x1="115.872" y1="717.044" x2="85.0167" y2="639.718" gradientUnits="userSpaceOnUse">
<stop stop-color="#EDE3DC"/>
<stop offset="1" stop-color="#010101"/>
</linearGradient>
<linearGradient id="paint24_linear_210_442" x1="88.0256" y1="669.242" x2="60.8796" y2="622.216" gradientUnits="userSpaceOnUse">
<stop stop-color="#E5B740"/>
<stop offset="1" stop-color="#743C19"/>
</linearGradient>
<linearGradient id="paint25_linear_210_442" x1="85.784" y1="673.855" x2="123.41" y2="657.081" gradientUnits="userSpaceOnUse">
<stop stop-color="#6D3B87" stop-opacity="0"/>
<stop offset="1" stop-color="#CD39C3"/>
</linearGradient>
<linearGradient id="paint26_linear_210_442" x1="81.8318" y1="641.078" x2="70.4151" y2="680.26" gradientUnits="userSpaceOnUse">
<stop stop-color="#EDE3DC"/>
<stop offset="1" stop-color="#010101"/>
</linearGradient>
<linearGradient id="paint27_linear_210_442" x1="186.062" y1="649.013" x2="-142.775" y2="689.84" gradientUnits="userSpaceOnUse">
<stop stop-color="#E5B740"/>
<stop offset="1" stop-color="#743C19"/>
</linearGradient>
<linearGradient id="paint28_linear_210_442" x1="66.6909" y1="690.241" x2="189.825" y2="690.88" gradientUnits="userSpaceOnUse">
<stop stop-color="#6D3B87" stop-opacity="0"/>
<stop offset="1" stop-color="#CD39C3"/>
</linearGradient>
<linearGradient id="paint29_linear_210_442" x1="148.846" y1="713.429" x2="67.1545" y2="806.675" gradientUnits="userSpaceOnUse">
<stop stop-color="#6633CC"/>
<stop offset="1" stop-color="#9D4BAD"/>
</linearGradient>
<linearGradient id="paint30_linear_210_442" x1="74.7187" y1="642.194" x2="69.2608" y2="616.908" gradientUnits="userSpaceOnUse">
<stop stop-color="#E5B740"/>
<stop offset="1" stop-color="#743C19"/>
</linearGradient>
<linearGradient id="paint31_linear_210_442" x1="62.4112" y1="641.633" x2="102.342" y2="617.179" gradientUnits="userSpaceOnUse">
<stop stop-color="#6D3B87" stop-opacity="0"/>
<stop offset="1" stop-color="#CD39C3"/>
</linearGradient>
<linearGradient id="paint32_linear_210_442" x1="217.871" y1="740.504" x2="30.7795" y2="749.477" gradientUnits="userSpaceOnUse">
<stop stop-color="#110C24"/>
<stop offset="1" stop-color="#23104A"/>
</linearGradient>
<linearGradient id="paint33_linear_210_442" x1="240.869" y1="735.341" x2="178.495" y2="708.081" gradientUnits="userSpaceOnUse">
<stop stop-color="#C28AFF"/>
<stop offset="1" stop-color="#C42374"/>
</linearGradient>
<linearGradient id="paint34_linear_210_442" x1="240.908" y1="735.142" x2="178.534" y2="707.881" gradientUnits="userSpaceOnUse">
<stop stop-color="#C28AFF"/>
<stop offset="1" stop-color="#250C57"/>
</linearGradient>
<linearGradient id="paint35_linear_210_442" x1="183.081" y1="737.326" x2="131.199" y2="746.862" gradientUnits="userSpaceOnUse">
<stop stop-color="#441F5D"/>
<stop offset="1" stop-color="#412E8A"/>
</linearGradient>
<linearGradient id="paint36_linear_210_442" x1="136.924" y1="732.078" x2="111.162" y2="732.431" gradientUnits="userSpaceOnUse">
<stop stop-color="#412E8A"/>
<stop offset="1" stop-color="#110C24"/>
</linearGradient>
<linearGradient id="paint37_linear_210_442" x1="-33.7348" y1="535.817" x2="228.962" y2="701.226" gradientUnits="userSpaceOnUse">
<stop stop-color="#F5C144"/>
<stop offset="1" stop-color="#8F7128"/>
</linearGradient>
<linearGradient id="paint38_linear_210_442" x1="163.863" y1="749.691" x2="129.704" y2="715.513" gradientUnits="userSpaceOnUse">
<stop stop-color="#DEA163"/>
<stop offset="1" stop-color="#CC7A3C"/>
</linearGradient>
<linearGradient id="paint39_linear_210_442" x1="88.3016" y1="708.193" x2="16.4576" y2="625.7" gradientUnits="userSpaceOnUse">
<stop stop-color="#EDE3DC"/>
<stop offset="1" stop-color="#010101"/>
</linearGradient>
<linearGradient id="paint40_linear_210_442" x1="40.709" y1="658.345" x2="124.525" y2="681.395" gradientUnits="userSpaceOnUse">
<stop stop-color="#6D3B87" stop-opacity="0"/>
<stop offset="1" stop-color="#CD39C3"/>
</linearGradient>
<linearGradient id="paint41_linear_210_442" x1="57.8719" y1="675.849" x2="18.3268" y2="638.619" gradientUnits="userSpaceOnUse">
<stop stop-color="#E5B740"/>
<stop offset="1" stop-color="#743C19"/>
</linearGradient>
<linearGradient id="paint42_linear_210_442" x1="107.286" y1="782.025" x2="146.549" y2="810.365" gradientUnits="userSpaceOnUse">
<stop stop-color="#4A219B"/>
<stop offset="1" stop-color="#9D4BAD"/>
</linearGradient>
<linearGradient id="paint43_linear_210_442" x1="107.746" y1="773.732" x2="141.26" y2="774.056" gradientUnits="userSpaceOnUse">
<stop/>
<stop offset="0.60345" stop-color="#6633CC"/>
<stop offset="1" stop-color="#FF9CAA"/>
</linearGradient>
<linearGradient id="paint44_linear_210_442" x1="123.139" y1="775.217" x2="109.892" y2="717.622" gradientUnits="userSpaceOnUse">
<stop stop-color="#D498F4"/>
<stop offset="1" stop-color="#4A219B" stop-opacity="0"/>
</linearGradient>
<linearGradient id="paint45_linear_210_442" x1="130.119" y1="775.573" x2="105.098" y2="783.402" gradientUnits="userSpaceOnUse">
<stop/>
<stop offset="0.60345" stop-color="#6633CC"/>
<stop offset="1" stop-color="#FF9CAA"/>
</linearGradient>
<linearGradient id="paint46_linear_210_442" x1="105.363" y1="739.278" x2="269.454" y2="992.107" gradientUnits="userSpaceOnUse">
<stop stop-color="#3A1A7B"/>
<stop offset="1" stop-color="#9D4BAD"/>
</linearGradient>
<linearGradient id="paint47_linear_210_442" x1="272.729" y1="619.049" x2="262.818" y2="634.772" gradientUnits="userSpaceOnUse">
<stop offset="0.294" stop-color="#A47092"/>
<stop offset="1" stop-color="#F5C144"/>
</linearGradient>
<linearGradient id="paint48_linear_210_442" x1="272.729" y1="619.049" x2="262.818" y2="634.772" gradientUnits="userSpaceOnUse">
<stop stop-color="#CC499E"/>
<stop offset="1" stop-color="#F5C144"/>
</linearGradient>
<linearGradient id="paint49_linear_210_442" x1="286.91" y1="627.106" x2="281.098" y2="644.76" gradientUnits="userSpaceOnUse">
<stop offset="0.244" stop-color="#A47092"/>
<stop offset="1" stop-color="#F5C144"/>
</linearGradient>
<linearGradient id="paint50_linear_210_442" x1="285.318" y1="629.137" x2="280.167" y2="644.221" gradientUnits="userSpaceOnUse">
<stop stop-color="#CC499E"/>
<stop offset="1" stop-color="#F5C144"/>
</linearGradient>
<linearGradient id="paint51_linear_210_442" x1="272.354" y1="632.521" x2="272.354" y2="644.938" gradientUnits="userSpaceOnUse">
<stop stop-color="#D35F8D"/>
<stop offset="1" stop-color="#E6B252"/>
</linearGradient>
<linearGradient id="paint52_linear_210_442" x1="31.7945" y1="9.0431" x2="-167.887" y2="692.086" gradientUnits="userSpaceOnUse">
<stop offset="0.180668" stop-color="#110C24"/>
<stop offset="0.477168" stop-color="#6633CC"/>
<stop offset="0.752778" stop-color="#9D4BAD"/>
</linearGradient>
<linearGradient id="paint53_linear_210_442" x1="318.044" y1="159.229" x2="438.111" y2="77.538" gradientUnits="userSpaceOnUse">
<stop stop-color="white"/>
<stop offset="1" stop-color="#2E2168"/>
</linearGradient>
<linearGradient id="paint54_linear_210_442" x1="386.761" y1="815.061" x2="307.88" y2="587.831" gradientUnits="userSpaceOnUse">
<stop/>
<stop offset="0.293771" stop-color="#6633CC"/>
<stop offset="0.614577" stop-color="#FF9CAA"/>
</linearGradient>
<linearGradient id="paint55_linear_210_442" x1="-44.6151" y1="545.582" x2="29.7708" y2="473.352" gradientUnits="userSpaceOnUse">
<stop/>
<stop offset="0.60345" stop-color="#6633CC"/>
<stop offset="1" stop-color="#FF9CAA"/>
</linearGradient>
<clipPath id="clip0_210_442">
<rect width="375" height="812" fill="white"/>
</clipPath>
</defs>
</svg>
